<svg width="370" height="286" fill="none" xmlns="http://www.w3.org/2000/svg"><path d="M369.134 277.175c-9.446 12.293-29.633 8.152-40.632.647-13.328-9.058-19.41-26.786-12.552-41.796.13-.389-.388-.647-.517-.389-7.117 15.399-1.035 33.386 12.681 42.702 11.387 7.764 31.832 11.776 41.537-.776.389-.388-.258-.776-.517-.388zm-84.239-99.638c-11.387 15.528 1.423 37.138 14.363 47.101 15.011 11.517 36.879 12.552 51.243-.647.258-.258-.13-.776-.518-.517-13.846 12.681-34.938 11.905-49.69 1.164-13.069-9.575-26.268-31.314-14.881-46.842.259-.259-.258-.647-.517-.259z" fill="#3A5E4C"/><path d="M282.565 203.805c-15.01 4.529-31.573.129-42.055-11.646-4.658-5.305-8.023-11.905-9.317-18.892-.776-4.271-1.035-9.576 1.424-13.329 1.941-3.235 5.564-5.046 8.799-6.599.388-.129 0-.776-.388-.518-2.976 1.553-6.211 3.106-8.282 5.823-2.329 2.847-2.717 6.729-2.717 10.223.129 7.764 3.364 15.399 8.152 21.48 10.352 13.587 28.209 19.022 44.514 14.105.388-.129.258-.776-.13-.647z" fill="#3A5E4C"/><path d="M253.321 149.586c-8.929 2.847-19.281 5.694-28.339 1.424-7.893-3.753-12.551-12.681-12.163-21.222.259-8.799 5.693-16.951 12.94-21.739 8.411-5.564 18.892-6.47 28.597-4.529.388.129.518-.518.13-.647-9.964-2.07-20.963-1.035-29.504 4.788-7.246 4.917-12.551 13.199-12.81 21.998-.259 8.281 4.011 16.951 11.258 21.092 9.316 5.305 20.574 2.459 30.02-.647.518 0 .259-.647-.129-.518zm2.071-48.525c-9.447-1.682-10.999-12.551-8.282-20.186 2.717-7.635 8.152-16.304 16.304-18.634 16.822-4.917 28.727 11.258 32.997 25.233.13.389.777.26.647-.129-2.458-8.152-6.599-16.304-13.587-21.48-6.47-4.788-15.657-6.73-23.033-3.106-7.764 3.753-13.587 13.716-15.01 21.998-1.294 7.117 1.811 15.657 9.705 16.951.517 0 .647-.647.259-.647zm56.029 58.619c-20.186-12.164-20.445-46.326-5.176-62.242 8.023-8.41 19.928-12.034 31.186-8.152 10.611 3.753 18.763 12.681 26.138 20.833.259.259.777-.129.518-.517-11.775-13.199-27.821-28.468-46.843-20.445-17.986 7.505-24.456 28.726-21.221 46.713 1.811 9.705 6.599 19.151 15.269 24.327.129.259.518-.388.129-.517z" fill="#3A5E4C"/><path d="M303.658 89.027c-15.399-8.799-17.599-29.503-7.765-43.22 10.999-15.657 31.315-19.41 49.043-15.14.388.13.518-.517.129-.646-18.374-4.4-39.337-.259-50.336 16.175-9.446 14.104-6.729 34.55 8.54 43.349.389.13.777-.388.389-.518z" fill="#3A5E4C"/><path d="M273.378 60.689c-10.87-6.47-9.446-21.74-.388-28.986 10.74-8.54 25.233-5.694 35.844 1.294.388.259.647-.388.388-.518-11.517-7.505-27.692-10.222-38.432.26-8.023 7.893-8.023 22.385 2.2 28.467.388.259.776-.259.388-.517zm56.159-33.127c-5.176-3.752-3.364-10.61.389-14.622 2.976-3.106 6.987-5.435 10.869-7.117 8.023-3.494 16.952-4.4 25.621-5.176.389 0 .389-.647 0-.647-10.869 1.035-22.386 2.33-31.832 8.411-6.082 3.882-13.846 13.716-5.435 19.669.518.259.777-.259.388-.518zM43.822 106.496c-5.435-5.693-12.034-10.999-20.186-11.646-6.988-.647-14.105 2.588-18.634 8.023-9.446 11.128-4.788 28.986 7.894 35.326 7.375 3.623 16.175 3.365 23.421-.388.388-.129 0-.776-.388-.518-7.894 4.012-17.728 3.882-25.233-1.164C3.19 131.082-.821 121.507.86 112.578c1.683-8.54 8.8-15.27 17.34-16.822 9.964-1.941 18.634 4.4 25.104 11.258.258.129.776-.259.517-.518z" fill="#3A5E4C"/><path d="M33.47 97.438c-.517.13-1.423-2.847-1.423-3.364 0-1.035.259-2.07.388-2.976a22.13 22.13 0 011.165-3.882c1.164-2.847 2.717-5.565 4.788-7.894 4.14-4.658 9.963-7.893 16.175-8.41 12.293-1.036 23.81 8.41 26.138 20.186.13.388.647.258.647-.13-2.717-14.104-18.245-24.327-32.22-19.669-6.6 2.2-12.293 7.247-15.27 13.587-1.423 2.977-2.329 6.341-2.458 9.705 0 1.294.259 4.4 2.2 3.624.517-.389.258-.906-.13-.777zm-14.751 43.608c2.976 13.328 15.398 23.033 28.597 24.715 6.211.777 13.199-.258 18.116-4.399 5.823-4.788 6.858-12.681 7.635-19.669 0-.388-.647-.388-.647 0-.777 6.988-1.941 14.752-7.764 19.41-5.306 4.141-12.681 4.917-19.022 3.753-12.293-2.2-23.55-11.517-26.268-23.939-.13-.518-.647-.259-.647.129z" fill="#3A5E4C"/><path d="M65.95 157.997c-.777 6.6 6.47 10.094 11.775 11.776 8.152 2.717 17.34 3.494 25.751 1.682 7.117-1.553 13.328-5.435 16.951-11.905 3.753-6.47 4.917-14.104 5.694-21.48 0-.388-.647-.388-.647 0-1.553 13.587-5.306 27.95-20.187 32.22-7.246 2.071-15.14 1.812-22.386.259-6.082-1.294-17.34-4.399-16.434-12.552.13-.388-.517-.388-.517 0zm10.222-78.416c-1.164-14.752 11.646-27.692 26.398-26.139 16.951 1.812 26.915 17.34 31.444 32.22.129.389.776.26.647-.129-4.529-15.528-15.269-31.703-32.997-32.738C86.912 51.89 74.49 65.088 75.525 79.71c0 .26.647.389.647-.129z" fill="#3A5E4C"/><path d="M108.393 142.081c6.988 2.459 14.493.13 19.798-4.788 5.694-5.434 7.764-13.328 6.211-20.962-4.011-19.281-24.456-26.786-42.184-26.01-.388 0-.388.647 0 .647 16.563-.776 35.326 5.435 40.89 22.775 2.459 7.505 1.424 15.916-4.011 21.868-5.047 5.564-13.07 8.411-20.316 5.953-.518-.259-.776.388-.388.517zm19.41-74.405c4.141-5.693 11.517-7.376 18.116-6.082 7.247 1.424 12.94 6.6 17.34 12.164 8.023 10.223 19.151 28.597 7.246 39.985-.259.258.13.776.518.517 12.552-12.034.517-31.703-8.152-42.184-4.788-5.694-10.87-10.482-18.505-11.387-6.47-.777-13.069 1.294-16.951 6.599-.388.388.129.647.388.388zm-7.376 91.357c1.294 4.917 10.093 5.176 14.234 5.046 6.47-.259 12.94-2.458 18.116-6.34 10.482-8.023 14.105-22.516 9.705-34.809-.129-.388-.776-.259-.647.129 4.012 10.999 1.294 24.198-7.376 32.221-4.14 3.882-9.316 6.341-14.751 7.505-2.718.518-5.564.777-8.411.518-2.976-.259-9.317-.906-10.352-4.529 0-.388-.647-.13-.518.259z" fill="#3A5E4C"/><path d="M176.457 105.72c7.376 6.729 15.14 15.01 14.881 25.75-.388 10.87-9.705 16.046-18.374 20.187-.389.129 0 .776.388.517 8.54-4.011 17.727-9.187 18.633-19.668.906-11.258-7.246-20.187-15.01-27.304-.259-.259-.776.259-.518.518zm-35.843 58.359c13.069 11.517 33.773 4.4 37.008-12.681.13-.388-.517-.518-.647-.129-3.235 16.563-23.163 23.55-35.973 12.422-.259-.388-.776.129-.388.388zm178.571 70.782c-3.235 6.47-3.493 13.716-.517 20.445.129.388.776 0 .517-.388-2.717-6.47-2.588-13.458.518-19.669.259-.388-.259-.776-.518-.388zm9.965 34.938c2.199 4.4 6.987 6.47 11.387 7.893 5.693 1.941 11.775 2.588 17.727 2.071.389 0 .389-.647 0-.647-5.175.517-10.351.129-15.398-1.294-4.788-1.294-10.87-3.494-13.199-8.282-.129-.388-.647 0-.517.259z" fill="#3A5E4C"/><path d="M337.172 273.422c6.47 2.2 13.07 3.494 19.928 3.623.388 0 .388-.647 0-.647-6.729-.258-13.328-1.423-19.669-3.623-.517-.129-.647.518-.259.647zm3.235-2.329c5.047 1.941 10.223 2.717 15.658 2.329.388 0 .388-.647 0-.647-5.306.388-10.482-.388-15.528-2.329-.389-.129-.518.518-.13.647zm-51.631-74.017c-1.035 3.882 2.071 8.541 4.141 11.646 2.459 3.753 5.694 6.988 9.317 9.705.388.259.647-.259.388-.517-3.235-2.459-6.082-5.306-8.54-8.67-2.071-2.976-5.694-8.282-4.659-12.034.13-.389-.517-.518-.647-.13z" fill="#3A5E4C"/><path d="M291.235 200.958c1.812 4.27 4.4 8.023 7.894 11.129.258.258.776-.13.517-.518-3.364-2.976-5.952-6.599-7.764-10.87-.129-.388-.776-.129-.647.259zm3.364 1.682c1.294 1.941 2.847 3.624 4.659 5.176.259.259.776-.129.517-.517-1.682-1.553-3.235-3.235-4.529-5.047-.388-.259-.905 0-.647.388zm24.328 22.645a43.251 43.251 0 0026.397-6.728c.389-.259 0-.777-.388-.518-7.893 4.917-16.822 7.246-26.009 6.599-.518 0-.518.647 0 .647zm6.728-4.14c6.6-.259 12.94-1.812 18.893-4.659.388-.129 0-.776-.388-.517-5.823 2.846-12.035 4.27-18.505 4.529-.388 0-.388.647 0 .647zm5.824-4.788c3.623-.259 7.117-1.294 10.222-3.365.388-.258 0-.776-.388-.517-2.976 1.941-6.341 2.976-9.834 3.235-.389 0-.389.647 0 .647zm1.035-5.176l5.823-1.941c.388-.13.259-.777-.13-.647l-5.823 1.941c-.388.129-.259.776.13.647zm-44.255-29.762c1.294-5.435 2.976-11.517 8.67-13.717.388-.129.258-.776-.13-.647-5.952 2.33-7.764 8.411-9.187 14.105 0 .518.517.647.647.259zm5.694-6.082a15.193 15.193 0 014.917-6.47c.388-.259 0-.776-.388-.518-2.33 1.812-4.141 4.012-5.176 6.729-.13.518.517.647.647.259zm9.834-29.762c4.399 6.988 10.222 16.693 18.892 18.634.388.129.518-.518.13-.647-8.411-1.941-14.364-11.388-18.505-18.375-.258-.259-.776 0-.517.388z" fill="#3A5E4C"/><path d="M309.222 149.716c2.717 3.623 5.952 6.729 9.705 9.187.388.259.647-.388.388-.517-3.753-2.459-6.858-5.435-9.576-8.929-.129-.388-.776 0-.517.259zm5.823 2.717c2.199 2.459 4.787 4.529 7.764 5.953.388.129.647-.389.388-.518-2.976-1.423-5.564-3.364-7.635-5.823-.259-.388-.776.129-.517.388zm-8.929-33.514c-.906-5.306 2.717-11.129 6.211-15.011 3.106-3.494 6.988-6.082 11.517-6.987.388-.13.259-.777-.129-.647-5.306 1.164-9.706 4.399-12.94 8.669-3.106 3.882-5.953 9.058-5.176 14.105 0 .388.517.259.517-.129z" fill="#3A5E4C"/><path d="M313.104 109.99c-.259.388-.647.647-.906 1.035.129.13.388.13.517.259-.129-3.106 2.977-5.952 5.435-7.635 2.329-1.552 5.047-2.458 7.764-2.846.388 0 .388-.647 0-.647-5.176.647-14.104 4.787-13.846 11.128 0 .259.389.388.518.259.259-.388.647-.647.906-1.035.388-.389-.13-.906-.388-.518zm22.516-14.234c6.728 1.553 12.293 5.435 16.045 11.258.259.388.777 0 .518-.388-3.753-5.953-9.576-9.964-16.434-11.517-.388 0-.518.647-.129.647z" fill="#3A5E4C"/><path d="M315.045 110.637c1.164-2.976 3.623-5.305 6.729-5.952.388-.13.259-.777-.13-.647-3.364.776-6.082 3.235-7.246 6.47-.13.388.517.517.647.129zm-81.522 53.442c-2.976 5.564 1.294 13.328 4.27 18.116.259.388.777 0 .518-.388-2.847-4.529-6.988-12.164-4.27-17.469.258-.388-.389-.647-.518-.259z" fill="#3A5E4C"/><path d="M235.076 170.549c-.647 1.682.517 3.235 1.294 4.529 1.035 1.682 2.458 3.235 3.882 4.529.258.259.776-.129.517-.517a20.023 20.023 0 01-3.105-3.494c-.906-1.294-2.588-3.365-1.941-5.047.129-.259-.518-.388-.647 0zm3.105 1.424a6.564 6.564 0 002.847 5.046c.388.259.647-.259.388-.517-1.423-1.036-2.329-2.718-2.588-4.529 0-.389-.647-.389-.647 0zm22.516 28.079c4.27 2.071 8.929 2.718 13.587 1.941.388-.129.259-.647-.129-.647-4.529.777-8.929.13-13.199-1.941-.388-.129-.647.389-.259.647zm20.057-2.07c-4.529.388-9.058 0-13.458-1.294-.388-.129-.517.518-.129.647 4.529 1.165 9.058 1.682 13.716 1.294.259 0 .259-.647-.129-.647zm-13.199-3.364c2.976.905 5.952 1.035 9.058.388.388-.13.259-.777-.13-.647-2.976.647-5.823.517-8.669-.388-.518-.13-.647.517-.259.647zm2.071-3.106c1.941.259 3.882.388 5.952.259.388 0 .388-.647 0-.647-1.941.129-3.882.129-5.694-.259-.517-.129-.647.518-.258.647zm-17.081-42.831c-.388 5.823 1.423 11.387 5.046 16.045.259.388.647-.129.518-.517-3.494-4.529-5.176-9.835-4.788-15.658-.129-.259-.776-.259-.776.13zm-2.33 5.176c-.129 2.717.777 5.305 2.33 7.634.258.388.776 0 .517-.388-1.553-2.2-2.329-4.529-2.329-7.246.129-.389-.518-.389-.518 0zm-31.703-26.269c-2.199 2.459-1.035 5.953.13 8.67 1.811 4.141 4.529 7.505 8.152 10.223.388.259.647-.259.388-.518-2.588-2.07-4.917-4.399-6.599-7.246-1.553-2.588-4.141-7.764-1.553-10.482.259-.517-.129-1.035-.518-.647z" fill="#3A5E4C"/><path d="M222.006 134.576c-.776 4.27 2.718 7.246 5.823 9.446.388.259.647-.259.388-.517-2.846-2.071-6.34-4.659-5.564-8.67 0-.388-.517-.647-.647-.259zm15.657-26.139c6.341-2.2 12.94-2.329 19.281 0 .388.13.518-.517.129-.647-6.47-2.2-13.198-2.2-19.668 0-.259.13-.13.777.258.647z" fill="#3A5E4C"/><path d="M245.169 109.214c1.941-.13 3.882 0 5.693.517.389.13.518-.517.13-.647-1.941-.517-3.882-.776-5.953-.647-.388.13-.388.777.13.777zm5.952 2.329c1.424.259 2.847.647 4.27.906.389.129.518-.518.13-.647-1.424-.259-2.847-.647-4.27-.906-.259-.13-.518.517-.13.647zm-1.164-20.833c0 2.07 2.07 3.364 3.493 4.528 1.941 1.553 4.012 2.977 6.082 4.141.388.259.647-.388.388-.517-1.682-.906-3.235-1.941-4.787-3.106-1.424-1.035-4.4-3.106-4.529-5.047 0-.388-.647-.388-.647 0zm1.941-.648c1.552 2.847 4.011 5.047 6.987 6.212.388.129.518-.518.13-.647-2.847-1.165-5.176-3.235-6.729-5.953 0-.388-.647 0-.388.388zm3.105-16.045c2.071-5.047 6.988-8.411 12.423-8.411.388 0 .388-.647 0-.647-5.823 0-10.87 3.494-13.07 8.799-.129.388.389.647.647.259zm25.88-3.106c5.564 5.306 9.446 11.905 11.387 19.41.13.388.777.259.647-.13-2.07-7.504-5.952-14.233-11.646-19.668-.258-.388-.647 0-.388.388zm2.458 10.74a16.27 16.27 0 013.494 6.6c.13.388.777.259.647-.13-.647-2.588-1.941-4.917-3.752-6.858-.13-.388-.647.13-.389.388zm9.835-14.492c-.259 6.21 5.047 12.422 9.705 15.916.388.259.647-.259.388-.518-4.399-3.364-9.705-9.446-9.316-15.398-.13-.518-.777-.518-.777 0z" fill="#3A5E4C"/><path d="M295.246 70.911c.777 1.812 1.942 3.235 3.365 4.53.259.258.776-.13.517-.518-1.423-1.165-2.588-2.718-3.235-4.4-.258-.259-.905 0-.647.388zm2.848 1.165c.388 1.94 1.941 3.364 3.882 3.752.388.13.517-.517.129-.647-1.682-.258-3.106-1.552-3.364-3.235-.13-.388-.777-.258-.647.13zm28.856-40.114c4.658-1.035 9.317-.259 13.328 2.2.388.258.647-.389.388-.518-4.141-2.588-9.058-3.364-13.846-2.33-.388.13-.258.777.13.648zm4.27 1.811c2.07 0 3.882.518 5.693 1.553.388.259.647-.388.388-.517-1.811-1.165-3.882-1.683-5.952-1.683-.647 0-.647.647-.129.647zm.776 1.941c.906.389 1.682.777 2.588 1.036.388.129.647-.389.388-.518-.905-.388-1.682-.776-2.588-1.165-.388-.129-.776.389-.388.647zm-64.57 12.164c1.294 6.47 5.305 11.775 10.999 15.01.388.26.647-.388.388-.517a21.77 21.77 0 01-10.74-14.622c-.13-.518-.647-.26-.647.129z" fill="#3A5E4C"/><path d="M272.343 53.313c1.552 4.14 4.529 7.505 8.54 9.705.388.13.647-.388.388-.518a17.257 17.257 0 01-8.281-9.317c-.259-.388-.906-.258-.647.13zm3.623 2.07c1.424 2.459 3.494 4.27 5.953 5.694.388.259.647-.388.388-.518-2.329-1.294-4.27-3.105-5.694-5.435-.388-.517-.906-.129-.647.26zm28.468-19.798c-4.788-3.106-10.223-4.658-15.916-4.658-.389 0-.389.647 0 .647 5.693 0 10.869 1.552 15.657 4.529.259.258.647-.26.259-.518zm-12.811-.905c2.588.258 4.918.905 7.376 2.07.388.129.647-.389.388-.518-2.458-1.165-4.917-1.812-7.634-2.07-.518-.26-.518.388-.13.517zm.648 2.587c1.164.259 2.329.518 3.493.647.389.13.518-.517.13-.647-1.165-.259-2.329-.517-3.494-.647-.388 0-.518.647-.129.647zm42.443-9.187c.129.259.259.647.259.906.129-.13.388-.26.517-.26-2.976-3.622-5.823-8.151-3.752-12.94.129-.387-.389-.646-.518-.387-2.2 5.046.647 9.834 3.753 13.716.258.259.647 0 .517-.259-.129-.259-.259-.647-.259-.906 0-.388-.647-.258-.517.13zm4.399-.13c-1.941-2.846-2.588-6.21-1.811-9.575.129-.388-.518-.518-.647-.13-.777 3.494-.13 6.988 1.941 9.964.258.388.776 0 .517-.259zm-2.329-12.81c.647-1.294 1.941-2.2 3.365-2.33.388 0 .388-.646 0-.646-1.683.129-3.235 1.035-4.012 2.588 0 .517.518.776.647.388zM89.5 93.815c6.988-.647 13.717.388 20.187 3.106.388.129.647-.389.388-.518-6.599-2.847-13.457-3.882-20.574-3.235-.389 0-.389.647 0 .647zm6.73 1.812c2.328.388 4.658 1.035 6.728 2.2.388.258.647-.389.388-.518-2.2-1.165-4.4-1.941-6.858-2.33-.518 0-.647.648-.259.648zm.647 2.199c2.07.389 4.14 1.165 6.081 2.07.389.13.647-.387.389-.517-1.941-.906-4.012-1.682-6.212-2.07-.517-.259-.647.388-.258.517zm-1.424 38.82a53.52 53.52 0 0016.951 1.553c.388 0 .388-.647 0-.647-5.693.388-11.258-.129-16.822-1.553-.259 0-.517.518-.13.647zm2.717 2.459c3.106.906 6.341 1.035 9.576.776.388 0 .388-.647 0-.647-3.106.389-6.211.13-9.317-.647-.517-.129-.776.518-.259.518zM68.538 159.55a23.313 23.313 0 008.928 7.247c.389.129.648-.389.389-.518-3.365-1.682-6.34-4.011-8.67-6.988-.388-.388-.906-.129-.647.259zm1.423-3.623c1.682 1.812 3.623 3.235 5.823 4.4.388.129.647-.389.388-.518-2.07-1.165-4.011-2.459-5.693-4.27-.259-.388-.777 0-.518.388zm1.294-.776c1.812 1.294 3.753 2.329 5.952 2.976.389.129.518-.518.13-.647-2.07-.647-4.012-1.553-5.694-2.847-.388-.388-.776.259-.388.518zm32.738 2.976c5.176-2.2 9.446-5.694 12.681-10.352.259-.388-.258-.647-.517-.388-3.235 4.529-7.376 7.893-12.423 10.093-.517.259-.129.906.259.647zm14.493-6.729c-3.493 4.4-8.152 7.376-13.457 8.929-.388.129-.259.776.129.647 5.435-1.553 10.223-4.659 13.846-9.058.129-.389-.259-.777-.518-.518zm-2.717 6.729c-2.847 2.458-6.082 4.399-9.576 5.823-.388.129-.258.776.13.647a33.348 33.348 0 009.834-5.953c.388-.258 0-.776-.388-.517zM24.93 146.093c3.623 4.917 8.411 8.669 13.975 11.128.388.129.647-.388.388-.518-5.564-2.458-10.222-6.081-13.716-10.999-.388-.258-.906.13-.647.389zm.388-3.882c.389 2.07 2.33 3.752 3.753 5.305 1.812 1.941 3.753 3.623 5.823 5.305.388.259.776-.258.518-.517-1.683-1.294-3.365-2.718-4.918-4.27-1.552-1.553-4.14-3.753-4.529-5.953-.129-.388-.647-.259-.647.13zm3.623.517a20.765 20.765 0 006.082 6.47c.388.259.647-.388.388-.517-2.329-1.683-4.4-3.753-5.823-6.212-.259-.388-.905 0-.647.259zm3.753 1.294l1.941 1.553c.259.259.776-.129.518-.518l-1.941-1.552c-.389-.13-.906.258-.518.517zm15.528 16.434c5.823 1.553 11.258-.906 16.822-2.459.388-.129.259-.776-.13-.647-5.434 1.424-10.869 4.012-16.563 2.459-.388 0-.647.647-.129.647zm15.658-6.082c-2.2 1.165-4.53 1.682-6.988 1.682-.389 0-.389.647 0 .647 2.588 0 5.046-.647 7.376-1.811.258-.13 0-.777-.389-.518zm-53.184-50.207c2.976-3.623 7.246-5.305 11.905-4.917.388 0 .388-.647 0-.647-4.788-.518-9.317 1.423-12.422 5.046-.26.389.129.777.517.518zm8.67-1.165a33.019 33.019 0 018.67-1.552c.388 0 .388-.647 0-.647a33.975 33.975 0 00-8.8 1.552c-.388.13-.259.777.13.647zm17.081-2.717c-1.941-4.27-2.07-8.929-.389-13.328.13-.388-.517-.518-.647-.13-1.811 4.53-1.552 9.447.389 13.846.259.388.776 0 .647-.388zM38 98.732c-.648-3.494-.389-6.858.646-10.222.13-.389-.517-.518-.647-.13-1.035 3.494-1.294 6.988-.647 10.611.13.388.777.259.647-.259zm3.234-.259c-.388-1.94 0-3.882 1.035-5.564.26-.388-.388-.647-.517-.388-1.165 1.812-1.553 3.882-1.035 6.082 0 .388.647.259.517-.13zM53.657 75.31c4.4-1.94 9.187-1.423 13.07 1.295.387.259.646-.388.387-.518-4.14-2.847-9.058-3.235-13.716-1.294-.518.13-.13.647.259.518zm4.788 3.106c2.846 0 5.564 1.036 7.893 2.718.388.259.647-.259.388-.518-2.458-1.811-5.176-2.717-8.152-2.847-.517 0-.517.647-.13.647zm10.481 3.235a31.556 31.556 0 016.988 7.376c.258.388.776 0 .517-.388-1.94-2.976-4.4-5.435-7.246-7.505-.259-.259-.518.259-.259.517zm3.494.647c1.423 1.553 2.717 3.365 3.752 5.176.259.389.777 0 .518-.388-1.165-1.94-2.33-3.623-3.882-5.305-.13-.259-.647.13-.388.517zm9.187 5.176c-1.423-4.917-1.035-9.834 1.423-14.363.26-.388-.388-.647-.517-.388-2.459 4.658-2.976 9.834-1.424 14.88 0 .518.647.26.518-.129zM78.631 75.57c0-4.012 2.07-7.506 5.564-9.317.389-.259 0-.777-.388-.518-3.623 1.941-5.952 5.694-5.823 9.964 0 .259.647.259.647-.13zm25.104-16.693c6.858.13 12.94 3.106 17.469 8.282.259.258.776-.13.517-.518-4.529-5.305-10.999-8.282-17.857-8.411-.517 0-.517.647-.129.647z" fill="#3A5E4C"/><path d="M110.981 63.277c2.329 1.035 4.529 2.329 6.47 4.011.259.259.777-.13.518-.518-1.941-1.682-4.141-3.105-6.6-4.14-.388 0-.776.517-.388.647zm3.235 4.787c1.682 1.424 3.494 2.847 5.176 4.27.259.26.776-.258.518-.517-1.683-1.423-3.494-2.847-5.176-4.27-.389-.259-.906.259-.518.517zm10.482 10.482c3.364 2.717 5.952 6.082 7.505 10.093.129.388.776.259.647-.13-1.682-4.14-4.27-7.634-7.635-10.351-.388-.389-.906.129-.517.388zm-1.424 79.969c4.27 1.941 8.67 2.329 13.328 1.294.388-.129.259-.776-.129-.647-4.4.906-8.67.518-12.811-1.294-.518 0-.776.518-.388.647zm1.035-4.011c3.494.647 6.988.776 10.482.388.388 0 .388-.647 0-.647-3.494.388-6.859.259-10.223-.388-.388 0-.647.647-.259.647zm23.81-.647c2.847.258 4.788-2.977 6.211-5.047a29.444 29.444 0 004.658-10.999c.13-.388-.517-.518-.647-.129-.517 2.846-1.552 5.693-2.976 8.281-1.294 2.329-4.141 7.635-7.376 7.376-.258-.259-.258.388.13.518zm8.411-20.575c.647-2.588.776-5.176.647-7.893 0-.389-.647-.389-.647 0 .259 2.588 0 5.176-.518 7.634-.259.518.388.647.518.259zm-12.682 28.856a22.9 22.9 0 008.67 3.365c.388 0 .647-.518.13-.647-3.106-.518-5.823-1.553-8.541-3.235-.259-.259-.517.258-.259.517zm5.177-2.717c1.682 1.164 3.493 1.811 5.434 2.07.389 0 .389-.647 0-.647a11.966 11.966 0 01-5.176-1.941c-.258-.259-.517.388-.258.518zm5.046-.906c1.424.259 2.847.388 4.27.259.389 0 .389-.647 0-.647-1.423.129-2.717.129-4.14-.259-.388-.129-.518.518-.13.647zm21.222-6.988c-.906 3.106-2.588 5.694-4.788 7.894-.259.259.13.776.518.517a20.584 20.584 0 005.046-8.152c0-.517-.647-.647-.776-.259zm-4.4-38.043c2.847 2.07 4.917 4.788 6.082 8.152.129.388.776.259.647-.129-1.165-3.494-3.364-6.47-6.341-8.541-.388-.388-.776.259-.388.518zm4.141-2.2c1.165 1.812 2.329 3.753 3.494 5.564.259.388.776 0 .518-.388-1.165-1.812-2.33-3.753-3.494-5.564-.13-.259-.777 0-.518.388zm2.07-2.2c2.847 4.012 5.306 8.282 7.247 12.811.129.388.776 0 .517-.388-1.941-4.529-4.399-8.8-7.246-12.811-.129-.259-.776.129-.518.388zm2.588 35.715c3.106-3.235 4.529-7.506 4.012-11.905 0-.388-.647-.388-.647 0 .517 4.27-.777 8.281-3.882 11.516-.13.259.258.647.517.389zm6.988-8.023c.259-3.623.259-7.376.13-10.999 0-.388-.647-.388-.647 0 .129 3.623.129 7.376-.13 10.999 0 .388.647.388.647 0zm-57.583-64.312c3.753-3.882 9.058-5.564 14.363-4.27.389.13.518-.518.13-.647-5.435-1.294-10.999.388-15.011 4.4-.258.388.259.776.518.517zm21.739-1.164c3.753 2.458 6.858 5.693 8.929 9.575.258.388.776 0 .517-.388-2.2-4.012-5.305-7.376-9.187-9.835-.259-.129-.647.389-.259.647zm12.811 12.163c2.847 6.082 4.27 12.552 4.529 19.281 0 .388.647.388.647 0-.13-6.859-1.682-13.329-4.529-19.54-.259-.388-.776-.13-.647.259zm.388 18.375c.647-4.141 0-8.152-1.812-11.776-.129-.388-.776 0-.517.389 1.811 3.623 2.458 7.375 1.811 11.387-.259.259.388.388.518 0zm7.635-1.294c.258-4.659-.518-9.058-2.33-13.458-.129-.388-.776 0-.517.388 1.811 4.141 2.588 8.54 2.329 13.07-.129.388.518.388.518 0z" fill="#3A5E4C"/></svg>