<svg width="271" height="176" fill="none" xmlns="http://www.w3.org/2000/svg"><g opacity=".5" fill="#3A5E4C"><path d="M297.19 110.095c0 .135.405.067.405 0-2.092-29.176-28.55-54.502-57.842-54.637-.135 0-.405.135-.135.202 13.904 2.027 26.93 6.822 37.526 16.344 11.069 10.063 17.346 23.503 20.046 38.091z"/><path d="M297.055 109.419c-4.792.676-9.449 1.824-14.173 2.837-3.24.743-5.872 1.418-8.167 3.782-1.552 1.621-4.252 5.2-6.682 3.444-1.012-.743-1.012-3.039-1.08-4.93-.27-.675-.54-1.486-.27-2.094-.067-.202-.135-.472-.202-.675-.27.338-.608.608-1.012.81.742 1.891 1.147 3.917 1.012 6.281.54.338 1.012.743 1.552 1.081 2.565.405 4.252 0 6.277-2.094 3.105-3.174 2.497-3.377 5.67-4.255 1.822-.472 3.644-.81 5.467-1.283 3.914-.878 7.896-1.756 11.743-2.904h-.135z"/><path d="M275.322 115.834c-.675-1.148-1.485-2.229-2.362-3.309-.473-.405-1.013-.811-1.485-1.216h-1.147a25.296 25.296 0 014.184 4.998c.203.27.945-.203.81-.473zm-19.911-2.296c1.013.946 1.958 1.959 2.903 2.972.067-.068.202-.135.27-.203.202-.135.337-.202.54-.27-.338-.473-.675-.945-1.013-1.351-.81-.54-1.755-.878-2.7-1.148zm3.578 7.362c-.135.135-.202.27-.337.406-.473.607-1.013 1.215-1.485 1.755-.81.946-1.755 1.824-2.7 2.634-2.295 2.026-7.829 7.024-10.394 3.512-2.7-3.782 4.522-8.307 5.265-12.089.202-.878.067-1.688-.135-2.499 0 .541-.068 1.013-.27 1.486-.135.27-.27.541-.405.743-.135.54-.405 1.013-.675 1.418-.81 2.162-2.7 4.12-3.915 6.079-1.08 1.756-2.025 4.66 0 6.213 1.62 1.283 3.915.27 5.535-.608 4.049-2.161 7.424-5.403 10.124-9.05-.203.135-.405.068-.608 0zm4.522-4.254c-.472 0-.877.135-1.282.27.135.135.203.337.27.54.608-.135 1.215-.203 1.822 0 .945.27 1.485 1.013 2.363 1.486.067.067.337.067.337-.068-.135-1.486-2.16-2.296-3.51-2.228zm-17.683 1.215c-15.456 1.689-30.777 3.917-46.301 5.065-.337 0-1.079 1.014-.472 1.014 15.456-.878 31.114-2.297 46.3-5.336.135-.27.27-.473.473-.743zm-10.799-22.895c-1.89-6.821-10.867-10.603-17.279-8.577-.135 0-.54.067-.607.202-.81 1.148-3.712 3.985-2.632 5.538.472.743 2.159.81 2.902 1.013 2.835.946 4.859 2.5 6.547 4.998.202.338.675-.203.81-.405 1.35-2.5 4.387 2.634 5.264 3.039.945.405 1.89.405 2.835-.068 2.227-.945 2.767-3.512 2.16-5.74zm-1.485 4.39c-.54.607-1.35 1.08-2.16 1.08s-1.417-.473-1.755-1.08a11.83 11.83 0 01-.742-1.013c-.405-.743-.473-2.432-1.35-2.904-1.417-.743-2.362.405-3.037 1.553-1.553-1.486-3.375-2.837-5.332-3.715-.54-.27-1.89-.472-2.295-.743-2.43-1.958 0-4.322 1.012-5.875 6.345-.338 13.162 1.35 15.996 7.766.135.54.338 1.014.473 1.554.202.337.337.743.337 1.148a4.19 4.19 0 01-1.147 2.229z"/><path d="M217.278 87.064c7.289-10.603 14.916-20.868 22.745-31.066.135-.203-.472-.135-.607 0-8.235 9.793-15.861 20.396-22.813 31.134-.135.27.54.135.675-.068zm-21.8 33.363c3.307-4.727 6.479-9.59 9.651-14.385 3.173-4.795 6.885-9.455 9.517-14.588.068-.067-.202-.067-.27-.067-3.51 4.322-6.344 9.252-9.449 13.845-3.375 5.065-6.884 10.063-10.124 15.263-.135.27.607.135.675-.068z"/><path d="M196.624 122.521c.203-.068.405-.203.54-.27 0 .337.068.742.338 1.013.405.472.81.337 1.35.337.135 0 .202-.067.067-.135-.135 0-.607-.608-.675-.743-.202-.337-.27-.675-.135-1.08.068-.27-.337-.135-.405-.135-.202.067-.405.202-.607.27-.338-.608-.81-1.216-1.485-1.486-.203-.068-.945.27-.675.54.607.541 1.08.946 1.417 1.689 0 .067.203 0 .27 0z"/><path d="M190.753 160.543c.405.742.81 1.418 1.282 2.026.068-.068.068-.135.068-.203-1.282-7.159-1.755-14.318-1.147-21.544.27-3.174.742-6.416 1.417-9.523.742-3.444 2.092-6.753 2.767-10.265 0-.068-.202-.068-.27 0-3.24 6.146-4.319 13.98-4.859 20.801-.473 6.213-.27 12.562.742 18.708zm3.915-1.554c.472-5.403.337-10.806.742-16.209.473-6.28 1.485-12.426 2.092-18.64 0-.067-.202-.067-.202 0-1.282 5.673-1.822 11.617-2.295 17.425-.472 5.74-1.08 11.751-.54 17.492-.067 0 .203.067.203-.068zm87.201-12.763a140.274 140.274 0 009.044-16.951c2.835-6.349 6.075-13.372 7.087-20.261 0-.068-.135-.068-.135 0-2.43 5.876-4.05 12.021-6.614 17.897-2.835 6.551-6.21 12.832-9.922 18.91-.405.743.135 1.148.54.405z"/><path d="M254.332 149.467c2.16-6.754 4.657-1.418 7.087-.203 1.552.743 3.442.608 5.062.406 4.994-.541 10.056-1.486 14.916-2.702.202-.067.607-.473.135-.405-3.375.608-6.682 1.216-10.124 1.688-1.687.203-3.375.473-5.062.541-1.35.067-3.037 0-4.252-.676-1.148-.608-1.822-1.891-2.767-2.701-3.308-2.702-5.265 1.621-5.872 4.322 0 .27.81-.067.877-.27z"/><path d="M245.221 151.291c2.834-.338 6.006-.608 8.706-1.689-2.497-.202-5.197.608-7.694.743-2.7.135-5.669.068-8.369.743-.068 0-.405.203-.203.27 2.16.743 5.265.203 7.56-.067z"/><path d="M233.139 151.357c-.472.406-.202.811.338.406 1.89-1.486.472-2.634-1.282-3.242-1.688-.608-3.51-.27-4.118-2.499-.54-2.026 2.633-5.741 4.05-6.956 2.295-2.026 7.424-4.728 9.517-1.283 1.552 2.566.877 6.416-1.08 8.577-.81.945-3.712 2.093-3.982 3.579-.27 1.283.742 1.621 1.754 1.216.27-.135-.067-.203-.202-.203-.27-1.215 0-2.093.742-2.566.27-.203.54-.405.81-.54.675-.811 1.485-1.351 2.093-2.297.944-1.485 1.552-3.241 1.619-4.997.068-4.053-2.564-6.484-6.411-4.998-3.443 1.283-7.627 3.782-9.382 7.159-.742 1.418-.945 3.174-.135 4.66.337.54.607.945 1.147 1.283.675.473 6.007 1.486 4.522 2.701zm.743.136c-.069 0-.069 0 0 0z"/><path d="M190.821 160.138h-.27c.472 1.013 1.012 1.891 1.755 2.633.877.338 1.889.406 2.969.203 4.185-.608 8.37-2.364 12.419-3.512 8.842-2.566 17.616-5.403 26.39-8.104.27-.068.068-.203-.135-.203-7.694 1.959-15.321 3.85-22.948 6.011-3.779 1.013-7.559 2.094-11.339 3.174-1.417.405-2.969.946-4.454 1.148-2.025.203-2.835-.405-4.387-1.35zm14.443-7.158c2.497.405 4.725-1.351 6.142-3.242h.135c2.295-1.891.742-5.065-1.957-5.403-2.498-.337-4.792 1.419-6.075 3.445-1.417 2.093-1.08 4.727 1.755 5.2zm-1.282-5.065c1.08-1.891 3.307-3.715 5.602-3.107 2.092.54 3.239 2.972 1.687 4.66-1.687 1.554-4.522 4.255-6.884 2.567-1.418-1.013-1.148-2.769-.405-4.12zm12.621-11.143c.202-.136-.203-.136-.27-.136-1.823.743-1.823.811-4.185.473-1.687.473-2.632-.067-2.97-1.486a2.992 2.992 0 01-.135-1.35c0-1.756.81-3.58 1.688-5.065 1.417-2.567 4.927-2.364 6.816-.338 1.688 1.823 1.553 4.592-.742 5.875-.067 0 .068.068.068.068 2.834-1.013 3.104-4.592 1.012-6.551-2.092-1.959-5.467-2.364-7.289.068-1.688 2.228-3.713 6.888-.878 9.117 2.093 1.621 4.927.54 6.885-.675zm3.78 7.766c1.822.27 2.969-1.891 3.577-3.242.81-1.824.337-3.85-1.89-4.12-1.822-.202-3.78 1.081-4.927 2.432-.135-.068-.337-.136-.472-.203 0 0-.27 0-.203.067.878 1.081 1.35 2.229 2.025 3.377.337.811.945 1.621 1.89 1.689zm-1.485-2.229c-.473-1.013-.743-2.026-1.62-2.566h.135c1.485-1.081 3.307-2.904 5.197-1.621 1.417.945.945 2.701.27 3.917-.472.878-1.282 2.431-2.497 2.093-.675-.27-1.148-1.148-1.485-1.823zm16.333-13.305c1.823-.473 3.105-2.499 3.105-4.323 0-.135-.337-.067-.405 0-.54 1.148-.675 2.634-1.755 3.512-1.147.878-2.767.405-3.037-1.013-.202-.878.135-1.891.54-2.634.54-.945 1.417-1.958 2.835-1.418.607.203 1.08.743 1.147 1.351 0 .067.203.067.203 0 0-1.554-1.553-2.161-2.835-1.689-1.552.541-2.565 2.364-2.632 3.985-.068 1.688 1.282 2.566 2.834 2.229zm24.366 6.821c2.025 1.216 4.589-.202 6.142-1.486.135-.135-.27-.135-.338-.067-1.687 1.013-4.522 2.701-5.939.473-.608-.946-.405-2.229 0-3.242.81-1.891 2.835-3.917 5.197-2.972 1.417.608 2.16 2.432 1.147 3.715-.067.067.203.067.203.067 1.485-1.823.337-4.119-1.958-4.322-1.822-.203-3.442.946-4.522 2.364-1.215 1.486-2.024 4.255.068 5.47zm12.013-42.143c.203-.068.27-.135.27-.203.068 0 .135 0 .135-.067-.405-6.281-4.724-12.157-9.786-15.601-2.16-1.419-7.56-4.795-9.989-1.891-1.418 1.688.135 4.052.877 5.673 1.35 2.971 2.835 5.943 5.062 8.307 3.442 3.647 8.437 5.538 13.431 3.782zm-14.308-6.214c-1.215-1.62-2.16-3.511-2.97-5.335-1.013-2.229-3.78-6.889 1.08-6.618 4.049.27 8.841 4.39 11.271 7.293 2.565 3.107 3.847 6.619 5.062 10.4h-.202c-5.737 2.095-11.069-1.282-14.241-5.74zm-18.966-7.564c1.418-.135 3.51-1.283 3.577-2.836 0-.203-.405-.068-.472.067-.878 1.418-2.025 2.904-3.982 2.229-1.148-.405-2.093-1.35-2.228-2.566-.202-1.419.878-3.242 2.498-3.04 1.215.136 2.429 1.351 2.564 2.567 0 .067.27.067.27 0 .068-.946-.135-1.689-.877-2.296-.607-.54-1.417-.743-2.227-.676-1.62.203-3.105 1.756-3.037 3.377.134 1.891 2.092 3.31 3.914 3.174zm49.203 17.897c.067 0 .067-.067.067-.135 0-.067-.202-.067-.202-.067-.743.27-1.35.675-2.16.202-.607-.338-.81-1.013-.607-1.62.27-.811 1.012-.879 1.619-.338.405.337.608.81.608 1.35 0 .135.27.068.337 0 .405-.743 0-1.688-.742-2.026-.743-.338-1.687 0-2.16.676-.54.742-.54 1.823.203 2.43.81.609 2.227.271 3.037-.472zm-62.297 18.709c1.283.135 2.97-.541 3.24-1.959.068-.202-.472-.067-.54.068-.877 2.093-3.442 1.891-4.589.202-.675-1.013-.945-2.363-.81-3.579.202-2.296 2.497-2.499 3.914-1.148 1.013.945 1.418 2.431 2.025 3.647 0 0 .068.067.068 0 0-2.229-1.283-5.065-3.848-5.065-1.957 0-2.969 1.62-2.902 3.444.068 1.891 1.35 4.187 3.442 4.39zm47.179-4.39c-.675-.54-1.283-1.013-2.025-1.418-.742-.203-1.485-.27-2.227-.27-1.485 0-2.228 1.08-2.295 2.431 0 .405.54.405.675.135 0-.135.067-.337.067-.473.27-1.35 1.485-1.62 2.835-1.283.472.135.945.135 1.417.27.405.135.743.676 1.013.946.27.203.675-.068.54-.338z"/><path d="M269.855 110.431c-.607 0-1.147 0-1.552-.068-.81-.068-1.35.338-1.957.81-.203.203-.338.338-.405.541-.27.27-.54.675-.405 1.08.067.27.472.338.607.068.135-.203.135-.405.203-.608l.337-.338c.068-.067.135-.135.068-.27.405-.27.945-.608 1.215-.608 1.012-.135 3.644-.202 3.914 1.081.068.338.54.27.608 0-.81-.675-1.688-1.283-2.633-1.688zm3.037 7.564c-.675.675-1.552.878-2.295 1.418-1.215.878-2.7-.54-3.442-1.283-.338-.27-.81.202-.473.473.54.472.81.878 1.485 1.215.608.338 1.35.405 2.025.405.675 0 1.148-.607 1.755-.81.675-.203.945-.473 1.417-.945.27-.271-.202-.743-.472-.473zm-13.228-.676c-.27-.945-.877-1.891-1.62-2.701a8.268 8.268 0 00-1.754-.811c0 .068.067.068.067.068.405.338.81.675 1.148 1.148-.068.068-.068.203 0 .338.472.945 1.619 1.688 1.619 2.904 0 .675.068 1.351-.067 1.958-.068.473-.405.743-.473 1.216-.067.338.405.405.608.27 1.147-1.013.945-2.634.54-3.984 0-.136 0-.271-.068-.406z"/><path d="M257.234 114.348c-.135-.135-.202-.203-.337-.27-.81-.338-1.62-.54-2.498-.81-.472-.068-.877-.068-1.35-.068-1.079 0-2.834-.608-3.577.473-.135.202-.27.472-.405.743 0 .607-.067 1.283-.27 1.823l-.202.405c-.135.743-.27 1.419-.81 2.026-.27.338.202.811.472.473.54-.675.81-1.215 1.013-2.026.405-1.418-.338-3.512 2.025-3.377 1.012.068 1.957.068 2.969.203 1.148.135 4.05 1.418 4.252 2.971.068.406.743.406.675 0 0-1.283-1.08-1.755-1.957-2.566z"/><path d="M248.73 116.239a2.883 2.883 0 01-1.553 1.283c-.742.27-1.619.54-2.429.473-.405 0-.405.675 0 .675 1.012 0 1.889-.27 2.834-.608.743-.27 1.418-.878 1.755-1.553.203-.338-.405-.675-.607-.27zm14.242.407c-1.013.202-1.755.337-2.7-.203-.878-.473-1.687-1.081-2.43-1.688-.337-.271-.81.202-.472.472 1.012.811 2.024 1.554 3.172 2.161.81.473 1.755.136 2.632-.067.405-.068.27-.743-.202-.675zm-48.394-26.542c-.135.675-.809 1.283-1.147 1.823-.472.81-.54 1.553-1.215 2.229-.337.337.203.81.473.472.337-.337.607-.675.81-1.08.202-.473.202-.946.607-1.35.27-.271.405-.609.54-.946.135-.338.472-.608.54-.946.202-.405-.473-.608-.608-.202zM25.732 77c.135-.135-.202-.473-.337-.406-27.875 23.638-33.95 68.955-12.487 98.671.068.135.405.27.27 0C5.012 159.799.152 143.05 1.974 125.356 4 106.716 12.976 90.439 25.732 77z"/><path d="M57.994 100.975c-1.755-4.052-3.307-5.875-7.56-6.55-5.466-.811-5.331-.068-8.436-2.567-1.822-1.486-3.577-3.107-5.332-4.593-3.78-3.309-7.56-6.686-11.609-9.725-.135-.067-.067.135 0 .203 4.185 4.322 8.842 8.24 13.296 12.224 3.105 2.701 5.737 4.863 9.855 5.47 2.767.406 8.369.473 8.369 4.255 0 2.161-4.522 4.66-5.805 6.281-2.362 2.837-4.522 6.754-4.387 10.536.135.405.27.743.405 1.148.135.067.27.067.27 0 2.632-6.821 4.252-12.427 10.866-16.344.068-.203.068-.338.068-.338z"/><path d="M45.103 109.958c.068 2.026.54 4.052 1.148 6.01.27.135.54.135.54-.067-.743-7.294-.743-13.642 1.822-20.666.135-.338-.945-.81-1.08-.473-1.148 2.837-2.092 6.011-2.565 9.185.135 2.026.068 4.052.135 6.011zm35.974.539c-6.345-3.107-13.566-3.917-20.518-3.512-.27 0-.54.135-.608.405-.27.811.135 1.148.743 1.351-2.228 4.66-2.903 10.063-2.295 15.196.202 1.823.472 6.956 2.835 7.699 1.62.54 2.7-1.013 3.307-2.229 1.012-2.026 1.012-4.322 2.362-6.213 2.835-3.917 8.302-2.634 12.621-2.972 2.565-.203 6.21-1.418 6.277-4.592 0-2.567-2.7-4.188-4.724-5.133zm3.172 6.011c-1.822 5.538-11.744 1.553-16.063 3.647-1.688.81-2.633 2.026-3.375 3.714-.473 1.148-.743 2.364-1.148 3.579-1.08 3.04-1.484 3.512-2.7.338-2.227-5.943-.877-12.899.54-18.91.54-.067 1.148-.338.338-.608 1.148-.54 2.43-.675 3.645-.54.945.067 1.957.135 2.902.203 1.552.202 3.105.405 4.657.742 3.645.743 12.824 2.702 11.204 7.835z"/><path d="M61.166 107.459c-1.755 0-3.24-1.081-3.847-2.702-.473-1.215-.135-2.228-.203-3.444 0-.068-.202-.405-.27-.27-1.417 1.215-.742 3.849.27 5.133 1.08 1.35 2.7 1.958 4.387 2.026.945 0 .405-.743-.337-.743zm50.823 58.487c-13.161-16.006-27.065-31.81-42.52-45.587-.203-.203-.878-.27-.473.135 13.836 15.263 28.28 29.918 41.643 45.654.27.406 1.823.338 1.35-.202zm-44.479 4.119c-1.147-3.579-1.079-6.754.203-10.265.203-.473-.742-.541-1.012-.541-3.51.473-.54-6.348-.81-7.564-.27-1.283-1.012-2.228-2.16-2.836-2.7-1.554-5.737-.135-7.492 2.093-5.466 6.957-2.7 18.775 4.118 23.773.067.203.472.473.675.473 1.754-.068 6.681.81 7.559-1.418.405-1.149-.81-2.837-1.08-3.715zm-7.018 4.457c-4.995-6.145-8.37-14.317-3.983-21.881.54-.743 1.148-1.486 1.688-2.296h.135c.742-.811 1.62-1.419 2.767-1.419 1.08 0 2.025.473 2.7 1.216.202.27.405.54.54.743.135.135.202.27.27.405h.135c.202.27.135.743.067 1.283.068 1.689-.945 3.445-2.227 4.593-.068.067-.135.135-.27.202-.068.27-.135.541-.135.811.27 1.958 2.16 2.093 3.78 1.958-.338 2.702-.338 5.471.202 8.105.135.742.945 2.296.945 2.904-.068 3.984-4.252 3.309-6.614 3.376z"/><path d="M61.368 174.658c-16.063.472-32.059.27-48.122-.068-.338 0 .202.54.472.608 15.996 1.08 32.262 1.013 48.258.135.337-.068-.338-.675-.608-.675zm49.743-2.568c-7.222.135-14.443.54-21.665.878-7.154.338-14.646.068-21.666 1.148-.135 0 .068.27.135.27 6.952.338 13.971-.337 20.923-.675 7.627-.338 15.254-.473 22.813-1.013.405 0-.337-.608-.54-.608z"/><path d="M112.327 169.389c-.203-.135-.473-.27-.675-.405.405-.27.675-.608.742-1.081.135-.743-.27-1.08-.674-1.621-.068-.135-.27-.135-.135.068.067.203-.203 1.081-.27 1.283-.203.473-.54.811-1.013.946-.337.135.068.472.203.54.27.135.472.27.742.405-.405.811-.675 1.689-.405 2.567.068.27 1.012.742 1.012.337.068-1.013.203-1.756.675-2.701.068-.068-.135-.27-.202-.338z"/><path d="M155.049 147.305c.472-.945.81-1.823 1.079-2.769-.134 0-.202.068-.269.135-6.21 6.551-13.094 12.359-20.856 17.019-3.442 2.094-7.019 3.918-10.664 5.538-4.05 1.756-8.437 2.837-12.351 4.795-.068.068.067.271.135.271 8.571-1.284 17.278-5.944 24.567-10.401 6.682-4.12 12.824-9.05 18.359-14.588zm-4.454-2.769c-5.804 3.512-11.136 7.632-16.873 11.211-6.682 4.12-13.634 7.632-20.383 11.616-.068.068.067.271.135.271 6.682-2.904 13.026-6.754 19.235-10.536 6.142-3.782 12.622-7.564 18.021-12.359.135 0 0-.27-.135-.203zM73.382 65.79c-7.964.54-15.929 1.688-23.758 3.308-8.504 1.757-17.953 3.715-25.647 7.767-.068 0 0 .203.067.203 7.694-1.824 15.186-4.728 22.948-6.551 8.707-1.959 17.548-3.174 26.39-3.917 1.012-.068 1.08-.878 0-.81z"/><path d="M96.937 91.25c-8.436 2.77-4.86-3.646-5.466-7.023-.406-2.161-1.958-3.917-3.375-5.47-4.252-4.66-8.91-9.05-13.701-13.103-.203-.202-.945-.202-.54.136 3.104 2.971 6.21 5.875 9.111 8.982 1.418 1.486 2.97 3.039 4.252 4.66 1.013 1.35 2.228 3.106 2.43 4.862.203 1.621-.607 3.242-.675 4.863-.27 5.268 5.535 4.12 8.707 2.701.54-.135-.405-.675-.743-.607z"/><path d="M105.509 99.151c-2.43-2.566-5.062-5.605-8.1-7.496v.067c1.688 2.634 4.455 4.795 6.412 7.226 2.16 2.634 4.253 5.741 6.885 7.902.067.068.472.27.405 0-.743-2.836-3.645-5.605-5.602-7.699z"/><path d="M114.554 111.308c.405.136.607 0 .675-.135-.068-.067-.203-.135-.27-.202-.068 0-.068-.068-.135-.068h-.135c-.405 0-.743-.135-1.013-.27-1.89 0-1.89 1.959-1.282 3.85.607 2.161 2.295 3.714.54 6.01-1.62 2.026-7.694 1.554-9.989 1.081-3.712-.81-10.26-3.985-8.302-8.712 1.417-3.445 5.804-5.606 9.449-5.2 1.552.135 4.86 2.228 6.614 1.35 1.485-.743 1.08-1.958-.067-2.701-.337-.203-.202.202 0 .337-1.012 1.216-2.092 1.554-3.172 1.149l-1.215-.406c-1.35-.135-2.497-.54-3.915-.472-2.227.135-4.387.81-6.21 2.093-4.116 2.904-4.656 7.362-.337 10.198 3.848 2.499 9.45 4.93 14.107 4.187 2.024-.337 3.914-1.35 4.792-3.309a3.777 3.777 0 00.405-2.093c0-1.149-2.903-7.362-.54-6.687z"/><path d="M154.24 140.888c-3.712-3.714-8.504-6.754-12.689-9.928-8.842-6.888-17.886-13.439-26.93-20.126-.27 0-.472-.067-.675-.135 7.627 6.281 15.119 12.562 22.813 18.708l11.541 9.117c1.485 1.148 3.173 2.229 4.388 3.647 1.619 1.824 1.552 3.174 1.822 5.403 0 .068.067.203.202.27.608-1.215 1.148-2.431 1.418-3.714-.203-1.148-.945-2.229-1.89-3.242zm-17.548-2.632c-1.417-2.836-4.86-3.782-7.829-3.782l-.135-.135c-3.577-.878-5.67 2.972-3.982 5.943 1.552 2.769 4.994 3.782 7.964 3.58 3.172-.068 5.534-2.432 3.982-5.606zm-4.185 4.998c-2.699.27-6.142-.608-7.221-3.377-1.013-2.499.607-5.47 3.509-5.133 2.835.608 7.627 1.419 7.627 5.066 0 2.161-1.957 3.241-3.915 3.444zm-20.518-4.525c-.27-.136 0 .337.067.405 2.093 1.35 2.16 1.215 3.578 3.917 1.687 1.351 1.957 2.701.674 4.052-.337.473-.742.81-1.282 1.148-1.755 1.283-4.184 1.824-6.344 2.094-3.645.473-6.075-3.242-5.4-6.619.608-3.039 3.51-4.93 6.48-3.647.067 0 0-.067 0-.135-3.105-2.161-6.885.27-7.357 3.782-.473 3.58 1.687 7.294 5.467 7.294 3.509.068 9.719-1.351 9.854-5.876.067-3.241-3.037-5.335-5.737-6.415zm5.061-9.523c-1.08-2.026-4.117-1.621-5.939-1.215-2.363.54-4.117 2.499-2.7 4.93 1.147 2.026 3.847 3.039 6.074 3.174.068.203.068.405.203.608 0 .067.202.27.27.135.405-1.688 1.215-2.972 1.957-4.525.405-.946.675-2.094.135-3.107zm-1.147 3.107c-.675 1.216-1.485 2.229-1.418 3.512l-.135-.135c-2.159-.676-5.332-1.216-5.467-4.052-.135-2.162 2.025-2.904 3.78-3.175 1.215-.202 3.375-.54 3.915 1.013.337.878-.27 2.027-.675 2.837zm-25.513-6.686c-1.822-1.553-4.791-1.351-6.681.067-.135.135.202.406.337.406 1.553-.338 3.173-1.216 4.792-.811 1.755.473 2.43 2.432 1.215 3.782-.742.811-1.957 1.216-3.104 1.351-1.35.135-2.97 0-3.51-1.824-.203-.742-.068-1.62.472-2.161.068-.067-.067-.27-.135-.202-1.552 1.148-1.08 3.174.405 4.119 1.688 1.149 4.32.811 5.94-.27 1.89-1.148 1.822-3.174.27-4.457zm-11-29.582c-.27-2.904-3.577-4.525-6.007-5.065-.27-.068.068.405.203.405 2.294 1.013 6.007 2.634 4.792 5.605-.54 1.284-1.958 2.094-3.24 2.364-2.497.608-6.075 0-6.817-3.039-.472-1.823.877-3.984 2.902-3.917.068 0 0-.27-.135-.27-2.97-.203-4.387 2.701-2.97 5.2 1.148 1.959 3.51 2.837 5.738 2.837 2.43 0 5.804-1.149 5.534-4.12zm-51.43 18.91c-.203-.135-.338-.135-.406-.067-.067-.068-.135-.135-.135-.068-6.006 5.065-8.841 13.71-8.504 21.409.135 3.242.743 11.211 5.4 11.481 2.7.203 3.982-3.106 5.062-4.997 2.024-3.512 3.847-7.227 4.657-11.211 1.215-6.349-.608-12.832-6.075-16.547zM32.278 134c-.743 2.432-1.957 4.728-3.172 6.957-1.485 2.701-4.185 8.914-7.424 3.782-2.768-4.323-2.025-12.157-.878-16.749 1.215-4.931 3.847-8.78 6.75-12.832.067.067.067.135.134.135 6.21 4.255 6.75 12.156 4.59 18.707zm6.345 24.72c-1.147-1.284-3.847-2.634-5.467-1.554-.202.135.27.473.405.473 2.093-.203 4.455-.068 5.197 2.364.473 1.418.135 3.106-.945 4.187-1.282 1.283-3.914 1.486-4.927-.27-.81-1.351-.472-3.377.675-4.458.068-.067-.135-.337-.202-.27-1.013.608-1.62 1.351-1.688 2.567a3.76 3.76 0 00.945 2.769c1.418 1.485 4.05 1.823 5.67.54 1.822-1.621 1.822-4.593.337-6.348zM20.4 95.775c-.068 0-.135 0-.203.068-.067.067.068.27.135.27.81.54 1.688.878 1.823 2.026.067.81-.473 1.553-1.215 1.823-1.013.338-1.62-.405-1.553-1.35 0-.676.405-1.216.945-1.554.135-.067-.135-.337-.202-.337-1.08.135-1.687 1.283-1.485 2.296.203 1.081 1.282 1.688 2.295 1.688 1.147 0 2.295-.81 2.295-2.026-.135-1.418-1.553-2.566-2.835-2.904zm64.794 49.166c-.81-1.418-2.767-2.567-4.387-1.824-.27.135.27.541.472.541 2.767-.608 4.455 2.093 3.578 4.524-.54 1.419-1.688 2.702-2.97 3.445-2.498 1.486-4.387-.676-4.05-3.107.203-1.756 1.417-3.242 2.227-4.727 0 0 0-.135-.067-.135-2.227 1.688-4.185 5.065-2.295 7.699 1.418 1.958 3.847 1.823 5.602.337 1.822-1.553 3.24-4.457 1.89-6.753zm-23.082-34.982c-1.013 4.052-1.755 8.172-1.553 12.359 0 .068.135.135.135.068.338-4.12.675-8.24 1.553-12.292 0-.068-.135-.135-.135-.135zm1.485-.742c-1.283 3.647-1.958 7.564-1.688 11.414 0 .067.203.202.203.135.337-3.917.81-7.632 1.62-11.414 0-.135-.135-.203-.135-.135zm1.079.134c-1.417 2.971-1.755 7.226-1.62 10.468 0 .067.135.202.203.135.337-1.891.54-3.85.81-5.741.202-1.553.675-3.174.607-4.862zm1.418-.473c-.81 2.566-1.282 5.47-1.552 8.172 0 .067.135.202.202.135.608-2.634 1.215-5.471 1.35-8.307zm1.35.473c-.675 2.499-1.485 5.132-1.755 7.699 0 .067.135.202.135.135.877-2.499 1.147-5.2 1.687-7.767l-.067-.067zm1.012-.202c-.675 2.363-1.08 4.862-1.35 7.294 0 .067.135.135.135.067a44.906 44.906 0 001.418-7.294c-.068 0-.136-.135-.203-.067zm1.484.202c-.607 1.08-.81 2.363-1.147 3.512a30.646 30.646 0 00-.81 3.579c0 .068.135.203.203.135.472-1.216.81-2.566 1.08-3.849.337-1.081.675-2.162.675-3.377zm1.148.337c-.945 2.229-1.553 4.728-2.025 7.091 0 .068.067.135.135.135.877-2.228 1.62-4.727 2.025-7.091 0-.067-.135-.203-.135-.135zm.945.879c-.472 1.756-1.282 3.242-1.822 4.93 0 .068.135.203.202.135 1.013-1.418 1.485-3.309 1.89-4.93 0-.068-.27-.203-.27-.135zm1.013.202c-.338 1.419-.878 2.634-1.418 3.985 0 .068.068.203.135.135.878-1.148 1.215-2.634 1.35-4.052 0-.068-.067-.135-.067-.068zm1.552-.609c-.472 1.621-.877 3.107-1.687 4.593 0 0 .067.135.067.067 1.013-1.283 1.688-2.972 1.62-4.66zm.878 1.014c-.203.811-.54 1.553-.878 2.296-.337.743-.81 1.419-1.012 2.161 0 .068.202.203.27.136 1.08-1.149 1.552-2.972 1.822-4.525 0 0-.202-.135-.202-.068zm1.147.473c-.473 1.756-1.35 3.241-1.89 4.93 0 .067.135.202.135.135 1.012-1.418 1.485-3.242 1.822-4.93 0-.068-.067-.135-.067-.135zm1.147.135c-.27 1.283-.81 2.364-1.35 3.579 0 .068.067.135.135.135.81-1.013 1.215-2.296 1.417-3.579 0-.068-.202-.203-.202-.135zm.944.675c-.27 1.689-1.012 2.972-2.025 4.323l.068.135c1.215-1.081 1.822-2.769 2.025-4.323.067-.135-.068-.202-.068-.135zm1.013.811c-.54 1.148-1.148 2.228-1.62 3.444 0 0 0 .068.067.068.608-1.081 1.148-2.229 1.688-3.377 0-.135-.135-.203-.135-.135zm1.215-.203c-.202.878-.404 1.689-.81 2.499-.337.81-.81 1.486-1.147 2.296 0 .068.135.203.203.135 1.282-1.215 1.754-3.106 1.957-4.795-.068-.067-.203-.202-.203-.135zm1.148.608c-.338 1.554-1.08 2.769-1.823 4.188 0 .067.067.135.135.135 1.147-1.081 1.687-2.634 1.822-4.188.068-.067-.135-.202-.135-.135zm1.08 1.216c-.203.608-.406 1.215-.743 1.756-.338.608-.878 1.08-1.215 1.621-.068.067.135.202.203.135 1.147-.743 1.754-2.161 2.092-3.445-.068 0-.338-.135-.338-.067zm.876 1.283c-.202.81-.945 1.486-1.484 2.094-.068.067.067.202.135.135.877-.473 1.215-1.216 1.35-2.229zM49.018 96.25c-1.822 3.849-2.497 8.441-2.092 12.696 0 0 .068.135.068.068-.068-4.458.675-8.442 2.092-12.63 0-.067-.068-.202-.068-.135z"/><path d="M49.76 96.18c-1.754 3.918-2.767 8.713-2.227 13.035 0 .068.135.135.135.068.338-4.525.878-8.645 2.295-12.967 0-.067-.135-.203-.202-.135z"/><path d="M50.704 96.383c-1.62 3.31-2.564 7.294-2.362 11.009 0 0 .068.135.068.067.405-3.849 1.08-7.294 2.362-10.94 0-.068-.068-.203-.068-.136zm.676 0c-1.013 3.242-1.823 6.686-1.958 10.063 0 0 .068.135.068.068.675-3.377 1.215-6.686 2.025-9.996 0-.067-.068-.202-.135-.135zm.81.136c-.742 2.634-1.62 5.47-1.822 8.239 0 .068.068.135.135.068 1.013-2.567 1.485-5.47 1.89-8.172.067-.135-.135-.27-.203-.135zm1.08.135c-.81 1.824-1.553 3.985-1.485 6.011 0 .067.135.202.135.135.54-2.026.81-4.052 1.484-6.01 0-.068-.135-.136-.135-.136zm.945 0c-.608 1.283-.945 2.77-1.08 4.187 0 .068.135.203.135.135.54-1.283.945-2.769 1.08-4.187l-.135-.135zm-22.273 24.313c.202 2.566.54 5.132.337 7.834-.27 3.242-1.35 6.146-2.497 9.117 0 .068.068.135.068.068 2.7-4.795 3.577-11.684 2.092-17.019z"/><path d="M30.794 119.886c.878 6.551-.067 12.359-2.092 18.639 0 .068.067.203.135.136 2.632-5.673 3.105-12.697 1.957-18.775z"/><path d="M29.31 118.536c-.068-.068 0-.068 0 0 .674 5.875.067 11.278-1.553 16.951 0 .068.068.135.135.135 2.025-5.403 2.43-11.481 1.418-17.086zm-1.148-.473s-.067-.135-.067-.068c.405 4.39 0 8.442-1.283 12.63l.068.067c1.485-4.052 1.957-8.374 1.282-12.629zm-1.418 2.432c-.067 2.093-.405 4.12-.877 6.146 0 .067.067.135.135.135.675-2.026.877-4.052.877-6.214 0-.067-.135-.135-.135-.067zm11.002 37.413c-.068-.067-.203-.135-.135 0 1.08 2.094 1.147 3.985.742 6.281 0 .068.135.203.203.135.945-2.094.472-4.592-.81-6.416z"/><path d="M36.666 157.234c1.08 1.689 1.35 3.377 1.283 5.336 0 .067.135.202.135.135.607-1.891-.068-4.052-1.418-5.471z"/><path d="M35.721 157.234c-.067 0 0 .068 0 0 1.552 2.026 1.957 4.323 1.417 6.754 0 .068.135.203.135.135 1.08-2.364.338-5.133-1.552-6.889z"/><path d="M34.844 156.964c1.553 1.823 2.025 3.984 1.485 6.281 0 .067.068.135.068.067 1.012-2.161.337-4.862-1.553-6.348z"/><path d="M34.17 156.693c1.822 1.891 2.227 4.39 1.147 6.754 0 .067.067.135.135.135 1.485-2.229.877-5.336-1.283-6.889zm3.104-82.596c-3.982.945-8.369 1.756-12.216 3.309v.067c4.117-.675 8.37-2.026 12.351-3.174.203 0-.067-.202-.135-.202zm-.675 2.296c-3.375.54-6.817 1.215-10.192 2.026-.067 0 .068.202.135.135 3.442-.54 6.817-1.216 10.192-2.026.067.067-.068-.135-.135-.135zm4.455-.607c-4.455 1.553-8.977 2.769-13.5 4.187 0 0 0 .068.068.068 4.59-.743 9.314-2.297 13.566-4.12.068 0-.067-.203-.134-.135zm-2.364 3.376c-3.104.81-6.209 1.485-9.313 2.228v.068c3.172-.338 6.412-1.08 9.449-2.094.135-.067-.068-.202-.135-.202zm4.05.337c-3.981 1.35-8.166 2.229-12.08 3.647 4.116-.473 8.369-2.026 12.216-3.512.067-.067-.068-.203-.135-.135zm3.51.744c-4.455 1.62-8.842 3.106-13.431 4.187-.068 0 .135.203.202.203 4.59-1.013 9.18-2.297 13.432-4.188.067-.067-.068-.202-.203-.202zm-3.375 2.971c-2.834.743-5.602 1.756-8.369 2.634-.068 0 .135.202.203.202 2.767-.877 5.601-1.62 8.301-2.633.135 0-.067-.203-.135-.203zM24.72 79.23c-6.75 6.55-12.96 15.464-15.66 24.514 0 .068.135.203.135.135 2.093-4.457 3.982-8.915 6.615-13.034 2.632-4.12 5.737-7.835 9.044-11.414.067-.135-.068-.27-.135-.203zm102.928 81.988a41.588 41.588 0 00-2.43 3.58c-.675 1.013-1.417 2.026-1.89 3.174.945-.945 1.62-2.161 2.362-3.309.743-1.081 1.485-2.229 2.093-3.377 0 0-.135-.135-.135-.068zm2.226-.539c-1.485 1.891-2.699 3.984-3.914 6.01-.068.068.135.203.135.135 1.35-1.958 2.767-3.917 3.914-6.078 0 0-.135-.135-.135-.067zm1.688.472c-1.012 1.419-2.092 3.039-2.767 4.66 0 .068.067.135.135.135 1.08-1.35 2.025-3.039 2.767-4.66 0 0-.067-.135-.135-.135zm2.97-2.297c-.675 1.823-1.62 3.512-2.7 5.133 0 0 .067.135.067.067 1.418-1.418 2.295-3.174 2.768-5.132 0 0-.135-.136-.135-.068zm3.036-2.092c-1.214 1.688-2.227 3.579-3.104 5.402 0 .068.067.135.067.068 1.215-1.688 2.363-3.512 3.172-5.403.068.068-.067-.067-.135-.067zm2.297-.946c-1.013 1.418-1.755 3.106-2.498 4.66-.067.067.135.202.203.135.877-1.486 1.89-3.039 2.497-4.66 0 0-.135-.135-.202-.135zm2.361-1.082c-.809 1.216-1.282 2.634-1.822 3.985 0 .067.068.135.068.068.675-1.284 1.484-2.567 1.889-3.918.068-.067-.067-.202-.135-.135zm-15.118-17.694c-1.08.067-2.497.945-2.497 2.161 0 0 .067.135.067.068.338-.406.608-.946 1.08-1.284.473-.405.945-.607 1.485-.742.067-.068-.068-.203-.135-.203zm2.564.676c-1.417-.136-4.319.675-4.589 2.431 0 0 0 .067.067.067.675-.472 1.215-1.148 1.957-1.553.878-.473 1.755-.675 2.7-.743.068-.067-.067-.202-.135-.202zm1.621 1.689c-1.823-.338-4.388-.068-5.872 1.35-.068.068.067.203.135.135 1.957-.945 3.577-1.485 5.804-1.283.135-.067 0-.202-.067-.202zm-.878 2.092c-1.35-.877-3.24-.81-4.522.136-.068.067.202.27.27.202 1.35-.81 2.834-.945 4.319-.202.068 0 0-.136-.067-.136zm.337 1.893c-.81-.946-2.227-1.284-3.375-.946-.067 0 .068.203.135.135 1.148-.27 2.228.068 3.24.811 0 .067 0 .067 0 0zm-17.953-30.528c-.945-.54-1.552-1.148-1.822-2.296-.27-1.013.135-1.688.067-2.634-1.079.54-1.012 2.296-.742 3.242.27 1.013.945 1.958 1.957 2.364.203.202.81-.541.54-.676zm-8.167-3.173c-4.185-1.013-9.45 1.419-10.462 5.876 0 0 .067.135.067.068 2.093-4.053 5.805-6.619 10.462-5.809.067-.067 0-.135-.067-.135z"/><path d="M103.957 111.106c-3.78-.54-8.707 1.486-9.99 5.335 0 .068.068.135.068.068 2.565-3.444 5.4-5.606 9.989-5.268.135.068 0-.135-.067-.135z"/><path d="M103.756 112.525c-3.78-.878-8.167 1.216-9.315 5.065 0 0 .068.135.068.068 1.89-3.512 5.332-5.606 9.314-4.998.135.068 0-.135-.067-.135z"/><path d="M103.552 114.82c-3.037-.811-7.02.405-8.436 3.376 0 .068.067.203.135.136 2.227-2.567 4.994-3.985 8.436-3.377 0 .067-.135-.068-.135-.135z"/><path d="M100.785 116.847c-1.822-.541-4.05.405-4.926 2.093-.068.068.134.203.202.203.202-.068.202-.135.202-.27 1.148-1.486 2.7-2.094 4.59-1.891.067 0-.068-.135-.068-.135zm.135 1.283c-1.417.338-2.834.878-4.184 1.419-.068.067.135.202.202.202 1.35-.405 2.835-.81 4.117-1.486.068 0-.067-.135-.135-.135zm.473 1.756c-.675.067-1.282.27-1.89.473-.067 0 .135.202.203.202.607-.135 1.282-.27 1.822-.472.068-.136-.067-.271-.135-.203zM71.56 93.48c-1.484.134-3.239 1.08-3.644 2.633.54-.473.945-1.08 1.552-1.486.675-.472 1.418-.743 2.228-.945.067-.068-.068-.203-.135-.203zm.27.743a5.326 5.326 0 00-2.025.81c-.54.338-1.484.946-1.552 1.689 0 0 0 .067.068.067.607-.338 1.08-1.013 1.62-1.418a10.754 10.754 0 011.957-1.013c.067 0-.068-.135-.068-.135zm.878.675c-1.688.405-3.645 1.62-4.455 3.174 0 0 .068.135.068.068l1.822-1.621c.81-.608 1.755-1.013 2.7-1.486.067 0-.068-.135-.135-.135zm1.417.472c-1.89.406-4.05 1.554-5.13 3.242 0 0 .068.136.068.068.81-.608 1.485-1.283 2.362-1.824.878-.54 1.823-.945 2.767-1.35.068-.068 0-.135-.067-.135zm.405.878c-1.484.405-3.577 1.418-4.387 2.77 0 .067.068.134.068.134.742-.473 1.417-1.08 2.16-1.553.742-.473 1.485-.81 2.227-1.148.202-.068 0-.203-.068-.203zm.27 1.892c-1.147.067-2.43.54-3.24 1.418 0 0 .068.135.068.067.608-.27 1.148-.607 1.755-.877.473-.203 1.013-.338 1.485-.473.135 0 0-.135-.068-.135zm1.35.472c-.944.338-1.89.946-2.834 1.351-.068.068.067.203.202.203.878-.473 1.957-.81 2.767-1.419.068-.067-.067-.202-.135-.135zm-9.99 70.171c-.472-1.959-.472-3.917-.675-5.876 0-.067-.202-.203-.202-.135-.54 3.377.404 7.361 2.16 10.265 0 0 .067.068.067 0-.473-1.418-1.013-2.768-1.35-4.254z"/><path d="M65.013 168.445c-.675-2.567-.877-5.2-1.012-7.834 0-.068-.135-.135-.135-.068-.473 4.322.405 9.388 2.767 13.102 0 0 .068.068.068 0-.473-1.823-1.215-3.444-1.688-5.2zm1.013 6.281c-2.025-3.917-3.172-7.429-3.645-11.819 0-.067-.135-.203-.135-.135-.337 4.187 1.013 8.645 3.712 11.954 0 .067.136.135.068 0z"/><path d="M64.744 174.995c-.135-.135-.202-.27-.337-.338h-.068c0 .608-.472-.472-.54-.675-.607-.945-1.08-2.026-1.417-3.107-1.08-3.309-1.215-6.888-1.35-10.333 0-.067-.135-.202-.135-.067-.27 4.998.067 10.536 3.375 14.588a.518.518 0 00.337.135l.203-.068c.067 0 0-.135-.068-.135z"/><path d="M62.786 174.995c-2.092-4.525-2.902-8.915-2.834-13.913 0-.067-.203-.202-.203-.135-.81 4.863.338 9.928 2.97 14.048 0 0 .067.067.067 0z"/><path d="M65.419 173.645a9.985 9.985 0 01-2.767.811c-.743.067-1.485 0-2.16.135v.068c.405.337 1.215.202 1.687.135 1.282-.068 2.497-.473 3.577-1.013.203-.068-.202-.203-.337-.136z"/><path d="M65.959 173.239c-1.147.473-2.16 1.014-3.442 1.149-.81.067-1.553.067-2.363 0-.067 0 0 .135.068.135 1.687.472 4.59.202 5.872-1.148.135-.068-.067-.203-.135-.136z"/><path d="M66.026 173.307c-1.012.135-2.024.405-2.97.675-.944.203-1.957.338-2.767.743 0 0 0 .067.068.067.945-.067 1.89-.337 2.835-.54 1.012-.27 2.092-.405 3.037-.743 0-.067-.135-.202-.203-.202z"/><path d="M67.578 173.644c-.743.068-1.35.068-2.025-.202-.135-.068-.067.067 0 .135a3 3 0 001.08.405c.27 0 .877.067 1.08-.135.135-.068-.068-.203-.135-.203zm18.56-.81c-2.767-.203-5.67.27-8.437.338-3.037.135-6.074-.068-9.111.337-.068 0 .067.135.067.135 2.43.878 5.94.473 8.572.406 3.037-.135 6.142-.338 9.112-1.013.202 0-.135-.203-.203-.203z"/><path d="M69.198 173.779c-1.013-.337-2.363-.135-3.24.338-.068.067.135.202.202.202.608-.135 1.148-.202 1.688-.27h.472c-.202.068-.337.135-.472.27 0 0 0 .136.067.136.405-.068.81-.203 1.215-.338.135-.068.068-.068.068-.135.135-.068.202-.135 0-.203zm45.018-8.239c-9.246-10.265-18.56-20.463-28.144-30.459 9.246 10.333 18.695 20.464 28.144 30.459.068.068.068.068 0 0zm2.497.473c-7.627-7.699-14.781-15.668-22.003-23.773 6.615 8.442 14.039 16.344 21.801 23.773.067.135.337.135.202 0zm.001-1.754c-5.602-6.214-11.407-12.224-16.739-18.775-.067-.068-.067 0 0 .067 5.265 6.484 10.664 13.102 16.739 18.708.067.067.067 0 0 0zm1.08-1.419c-1.822-2.769-4.522-5.133-6.749-7.632-.068-.067-.203-.067-.135 0 2.227 2.567 4.319 5.336 6.749 7.632.068.067.203.067.135 0zm1.822-1.148c-1.215-1.824-2.903-3.445-4.387-5.066-.068-.067-.338-.135-.203 0 1.485 1.689 2.902 3.58 4.59 5.066 0 .067 0 .067 0 0zm80.857-134.736l-13.971-4.66a9.165 9.165 0 01-1.958.202l-.607.608c-1.013 1.013-2.767.81-3.51-.473-.337-.135-.472-.337-.405-.742-.27-.473-.54-.878-.742-1.284a.509.509 0 01-.135-.27c-4.05-1.283-8.099-2.634-12.149-3.917-.135-.067-.54-.135-.54.135.337 2.229.067 4.12-1.35 5.943-2.497 3.175-9.112 2.364-10.596-1.418-1.283-3.377 0-6.618 2.969-8.577.203-.135-.27-.405-.337-.405-5.13-1.486-10.327-2.972-15.456-4.525-.135 0-.473-.135-.54.067-3.307 2.5-4.792 2.634-4.522.338-.203-1.013.202-1.823 1.147-2.431.135-.135-.202-.338-.27-.405-5.332-1.689-10.664-3.512-16.063-5.133-.203-.068 0 .27.135.338 2.565.945 5.197 1.756 7.762 2.633 1.282.406 5.331 1.014 5.939 1.959 1.147 1.688-.473 2.431.54 4.39 1.755 3.377 4.117.743 6.007-.203 2.632-1.283 6.749.878 9.449 1.689 2.16.607 3.915.472 3.847 2.431 0 .338-1.552 2.161-1.755 2.701-1.35 3.647.405 7.362 3.915 8.848 3.037 1.35 6.614.742 8.706-1.959 1.418-1.756.743-4.592 2.7-5.403.878-.405 4.59 1.486 5.467 1.756 1.688.54 3.847.81 4.86 2.431 1.012 1.689.945 4.458 4.049 3.58 1.688-.54 1.688-2.094 3.51-2.431 1.012-.203 4.792 1.62 5.804 1.958 2.565.878 5.062 1.756 7.627 2.634.203.135 1.215-.203.473-.405z"/><path d="M200.068 26.686c-5.872 16.75-9.989 33.903-21.125 48.221-6.412 8.307-15.524 15.466-25.58 18.708-1.148.472-2.363.81-3.51 1.013-6.075 1.418-12.486 1.35-18.831-.81-7.829-2.635-14.443-8.173-17.413-16.007-3.037-8.037-2.565-17.424-2.16-25.866.81-17.83 4.927-34.309 9.854-51.395.068-.203-.472-.473-.54-.338-7.897 19.18-11.069 41.67-10.664 62.336.135 8.172 1.35 16.479 6.817 22.895 4.387 5.132 10.731 8.442 17.346 9.86 15.928 3.377 31.992-4.66 42.588-16.209 12.824-14.047 19.911-33.835 24.163-52.138 0-.27-.81-.54-.945-.27z"/><path d="M213.229 59.712c-3.577-11.009-7.627-22.287-12.216-32.89-.068-.136-.473-.406-.405-.136 2.767 9.658 6.614 19.045 9.989 28.5 1.755 4.93 4.184 10.604 2.362 15.872-1.485 4.254-5.399 6.956-9.179 8.982-15.456 8.172-32.802 10.468-49.81 13.372-.81.405-1.688.675-2.565.945 9.112-1.08 18.291-2.633 27.2-4.727 9.651-2.296 20.113-5.2 28.617-10.603 7.222-4.728 8.572-11.346 6.007-19.316zm-51.565-35.255c-4.252.946-3.645-9.657-3.915-11.886 0-.135-.202-.203-.337-.203-.405.068-.878.068-1.283.136 1.688.607 1.283 2.026 1.418 3.714.135 1.89 0 4.052.472 5.876.54 1.89 1.89 3.039 3.847 2.633.473-.067 0-.337-.202-.27z"/><path d="M193.994 28.78c-1.282-1.892-3.24-2.027-5.062-1.352 0-.067-.068-.135-.135-.067-.068.067-.135.135-.27.203-.81.337-1.62.878-2.295 1.418-.135.067.203.27.27.202.27-.202.608-.337.945-.54-2.767 2.904-5.602 7.091-2.767 10.738 1.552 1.959 4.252 2.432 6.209.946 2.902-2.161 5.332-8.24 3.105-11.549zm-7.829 11.48c-1.283-.81-1.688-1.958-1.89-3.377-.54-3.511 1.687-6.145 3.914-8.644 1.553-.743 3.24-1.148 4.59.27.607.675 1.012 1.486 1.147 2.364.473 2.364-.742 4.997-1.889 7.024-1.013 1.958-2.633 4.322-5.872 2.363z"/><path d="M194.196 32.224c-1.485 1.149-3.172-.405-4.252-1.485-.945-1.013-1.35-2.432 0-3.31-.877 0-1.35.743-1.485 1.554-.135 1.148.743 2.093 1.552 2.769.81.743 1.688 1.486 2.835 1.486.473 0 1.688-.27 1.688-.878 0-.068-.203-.203-.338-.136z"/><path d="M191.833 33.642c-1.215-.676-2.227-1.419-2.834-2.702-.54-1.013-.473-2.093-.675-3.174 0 0 0-.067-.068-.067-.742 1.013-.202 2.701.338 3.714.742 1.283 1.822 2.094 3.239 2.431.203 0 .135-.135 0-.202z"/><path d="M191.023 35.33c-1.215-.81-2.227-1.823-2.902-3.173-.54-1.081-.54-2.23-.877-3.31 0 0 0-.067-.068-.067-.472 1.215.203 2.904.878 3.984.674 1.148 1.687 2.094 2.969 2.634.068.068 0-.067 0-.067z"/><path d="M190.686 35.803c-1.418-.405-2.633-1.216-3.443-2.499-.742-1.148-.877-2.431-1.08-3.782-1.147 2.77 2.093 6.078 4.658 6.416 0 .068-.068-.068-.135-.135z"/><path d="M190.416 37.155c-2.767-.81-4.657-2.972-5.534-5.673.202 2.904 2.767 5.403 5.669 5.875.068-.067-.067-.202-.135-.202zm3.376-2.365c-.473.067-.878.202-1.418.067a3.002 3.002 0 01-1.417-.81c-.068-.068-.068 0 0 .067.27.406.675.676 1.147.878.473.203 1.418.406 1.89 0 .068-.067-.135-.202-.202-.202zm.472-1.62c-.135.27-.27.472-.54.607-.338.203-.81.203-1.148-.067-.067-.068 0 0 0 .067.27.338.608.405 1.08.338.405-.068.945-.338.945-.81 0-.068-.27-.203-.337-.136zm-46.031 3.713c-1.755-2.904-6.547-4.525-9.179-1.756-.068.068.067.203.135.135 3.712-2.566 8.504-.608 9.516 3.715.54 2.228.135 4.93-1.012 6.956-1.418 2.431-4.05 1.62-6.21 2.499-1.215.472-1.89 1.688-2.362 2.836-.27.608-.675 2.432-1.35 2.972-2.7 2.161-3.442-1.35-3.645-2.499-.404-2.161-.337-4.39.068-6.551.675-4.187 2.7-7.632 5.264-10.94 0 0 0-.068-.067-.068-4.657 4.187-7.762 12.696-5.602 18.842.405 1.283 1.417 2.364 2.835 2.296.877-.067 1.417-.54 1.89-1.215 2.159-3.107.742-4.795 5.332-5.47 2.362-.338 3.577-.743 4.657-3.242 1.214-2.634 1.282-6.011-.27-8.51z"/><path d="M148.908 50.727c.405.54.675 1.284.742 2.297.135 1.958-1.08 3.984-2.227 5.402-2.025 2.432-7.694 4.863-8.572-.607-.337-2.23.878-4.323 1.89-6.214l-.067-.067c-1.823 2.566-3.848 7.159-.27 9.252 2.632 1.553 5.669 0 7.424-2.161 1.755-2.094 3.375-5.74 1.08-7.902z"/><path d="M147.692 49.918c.27.136.54.27.81.473.135.068.27.203.405.338a2.424 2.424 0 00-1.215-.81z"/><path d="M140.809 51.945c-.067.067.135.202.203.135 1.485-1.08 4.657-2.77 6.749-2.161-2.43-1.013-5.197.27-6.952 2.026z"/><path d="M146.41 50.188c1.215.743 2.227 1.62 2.43 3.04.202 1.215-.27 2.16-.675 3.24 0 .068.135.203.202.136 2.228-1.891.81-5.943-1.957-6.416z"/><path d="M145.668 50.593c-.068 0 0 .068 0 .068 1.215 1.08 2.025 2.499 2.227 4.12.135 1.486-.337 2.566-.81 3.984 0 .068.135.203.135.136 2.43-2.297 1.013-6.687-1.552-8.308z"/><path d="M144.655 51.81c-.068 0 0 .067 0 .067 1.282.676 2.295 1.756 2.497 3.242.203 1.419-.405 2.5-1.012 3.715 0 .067.135.202.202.135 2.565-2.026 1.013-6.078-1.687-7.159z"/><path d="M143.508 52.958c-.135-.068-.068.067 0 .135 1.215.743 1.957 2.026 2.295 3.377.27 1.283-.135 2.296-.338 3.579 0 .068.135.203.203.135 2.024-2.296.202-5.943-2.16-7.226z"/><path d="M143.238 54.377c-.067-.068 0 .134 0 .134 2.16 1.149 2.295 3.985 1.215 5.944 0 .067.068.135.135.135 2.025-1.959.81-5.133-1.35-6.214z"/><path d="M142.766 55.659c-.067-.068-.067.067 0 .067 1.687 1.554 1.552 3.715.945 5.673 0 .068.068.203.135.135 1.485-1.823.54-4.457-1.08-5.875zm.54-20.667c-.068-.067 0 .136.067.136 3.172 1.283 4.455 4.254 4.927 7.361 0 .068.135.203.203.135.539-3.444-2.16-6.551-5.197-7.632z"/><path d="M141.483 36.14c-.067 0 0 .068 0 .068 3.577 1.08 4.657 3.985 5.197 7.294 0 .068.202.203.202.135 1.148-3.377-2.294-6.889-5.399-7.496zm-.337 1.824c-.068-.068 0 .067 0 .135 1.35.945 2.43 2.296 2.97 3.917.472 1.418.337 2.769.405 4.187 0 .067.135.203.135.135 1.619-3.107-.878-6.956-3.51-8.374z"/><path d="M139.863 38.978c-.135-.068-.067.135 0 .135 2.902 1.756 3.172 4.795 2.767 7.767 0 .067.135.202.135.135 1.823-2.77-.337-6.551-2.902-8.037zm-.81 2.971c-.135-.068-.135.068 0 .135 2.025 1.62 1.89 3.714 1.552 5.943 0 .068.068.203.135.135 1.418-2.026 0-4.93-1.687-6.213zm-.742 3.107c-.068-.068-.135 0-.068.067 1.215 1.35 1.013 2.837.675 4.39 0 .068.135.203.203.135 1.08-1.35.27-3.444-.81-4.592zm-6.074-25.462c-.607-1.756-2.767-3.174-4.589-2.229-.068.068.067.203.135.203 3.577-1.013 4.792 2.431 4.117 4.93-.27 1.013-1.418 3.512-2.498 4.052-2.969 1.419-1.754-.81-1.619-1.485.202-.676.202-1.149.067-1.824-.337-1.418-3.037-4.93.068-5.268.067 0 0-.067-.068-.067-1.35 0-1.957.945-1.755 2.229.135.742.608 1.418.878 2.16.472 1.149.405 1.96.135 3.175-.405 1.62.877 2.634 2.362 1.688 2.16-1.486 3.645-5.065 2.767-7.564zm-6.75 10.806c-1.012-1.012-2.7-.675-2.767.879 0 .067.067.135.067.067 0-.473.27-.81.608-1.08.742.405 1.484.81 2.227 1.283.337.675-.27 1.823-.54 2.499-.675 1.418-1.485 2.296-1.822 3.85-.135.607-.203 1.282-.54 1.823-.473 1.215-1.553 1.08-3.173-.406a2.848 2.848 0 01-.202-1.485c.135-1.959 1.552-3.58 1.957-5.538 0-.068-.135-.203-.202-.135-.945 2.16-3.915 5.943-1.485 8.104 1.62 1.486 3.442.54 3.915-1.418.202-.81.27-1.554.607-2.297.405-.945 1.08-1.755 1.485-2.701.675-1.148.81-2.499-.135-3.444zM153.7 75.447c-.743-.135-1.418.473-1.013 1.216 0 .067.203.135.135 0-.202-.338.068-.608.405-.81.473-.27.878 0 1.013.472.135.473.067 1.013-.068 1.486-.135.473-.472 1.08-.945 1.283-1.147.54-1.215-.743-.742-1.215.067-.068-.135-.203-.203-.203-.472.067-.81.54-.675 1.013.135.405.473.608.878.743 1.215.337 2.092-.743 2.295-1.824.135-.878-.068-1.958-1.08-2.16zm19.439-15.331c-1.013-.338-2.093.27-2.768 1.013-.067.068.135.27.27.203 1.013-.676 1.013-1.013 2.228-.27 1.282.742.944.472.27 1.283-.405.54-.675.878-.743 1.553-.202 1.283.405 4.12-1.417 4.592 0-.877-.135-1.755-.608-2.498-.54-.81-2.564-2.162-.945-3.04 0 0 0-.067-.067-.067-.81 0-1.148.743-.878 1.486.203.608.878 1.013 1.215 1.486.608.877.743 1.755.743 2.836 0 .135.27.203.405.203 1.147-.068 1.755-1.013 1.957-2.094.135-.81 0-1.688.068-2.499.135-1.013.674-1.418 1.214-2.16.473-.879-.067-1.757-.944-2.027zm-5.266-9.996c-1.147-2.16-4.117-2.228-6.142-1.958-.135 0 .068.203.135.203 2.43-.068 6.345.27 5.805 3.647-.27 1.89-1.89 3.241-3.24 4.322-.27.203-.607.54-.945.675-.675.338-3.037.068-3.442-.54-.405-.608-.337-1.418-.27-2.094.203-1.553 1.08-2.971 1.35-4.592 0-.068-.135-.135-.135-.135-.472 2.161-3.037 5.335-1.012 7.496 1.349 1.486 3.307.54 4.589-.405 1.957-1.486 4.657-4.052 3.307-6.618zm9.449.136c-.067 0 .068.135.068.135.405-.27 1.08-.203 1.417.202.338.406.203.946-.135 1.351-.405.473-1.147.54-1.485-.135-.135-.338-.135-.81-.067-1.148 0-.068-.135-.203-.135-.135-1.147 1.08.877 2.836 2.025 1.688 1.147-1.215-.54-2.836-1.688-1.958zm-4.589-16.478c-.135 0 .068.202.135.202 3.982.473 5.602 5.47 2.228 7.835a2.29 2.29 0 01-1.013.472c-.877.608-1.215.068-1.012-1.486a19.354 19.354 0 01-.27-1.958 772.865 772.865 0 01-.608-4.525c0-.067-.135-.203-.135-.067-.135 2.836.27 5.605.743 8.374 0 .203.27.203.405.135 2.43-.338 4.522-2.364 4.252-4.93-.27-2.229-2.43-4.052-4.725-4.052zm28.483-5.538c-1.418 5.942-2.16 11.886-3.982 17.761-1.958 6.146-4.59 11.887-7.492 17.627 0 0 .067.135.067.068 3.173-5.336 5.67-11.144 7.627-17.087 1.823-5.808 3.712-12.157 3.78-18.37 0 .068 0-.067 0 0z"/><path d="M201.958 30.603c-3.105 16.682-9.179 32.08-18.696 46.127l.068.068c9.786-13.44 16.603-29.581 18.898-46.06 0-.067-.27-.27-.27-.135z"/><path d="M203.038 32.224c-1.553 6.686-2.835 13.372-5.062 19.923-2.16 6.213-4.927 12.089-7.83 18.032 0 .067.068.135.135.135 3.375-5.808 6.007-12.022 8.167-18.37 2.092-6.28 4.05-12.967 4.725-19.586-.068-.067-.135-.202-.135-.134z"/><path d="M204.05 35.33c-2.295 11.414-5.872 22.22-11.609 32.418l.068.067c5.872-9.86 10.191-20.936 11.811-32.35 0-.067-.202-.27-.27-.135z"/><path d="M205.129 38.843c-1.417 4.66-2.227 9.387-3.914 13.912-1.687 4.525-3.78 8.915-6.142 13.17 0 0 .067.135.067.067 4.792-7.902 9.315-17.762 9.989-27.15zm1.688 3.174c-3.172 10.063-6.816 19.653-11.474 29.176 0 .067.068.135.068.067 5.062-8.982 9.179-19.045 11.541-29.108 0-.067-.135-.202-.135-.135zm1.283 3.647c-1.215 3.444-2.093 7.023-2.903 10.535 0 .068.135.203.135.135 1.148-3.444 2.228-6.956 2.903-10.535.067-.068-.068-.203-.135-.135zm1.349 2.972c-1.62 3.781-2.497 7.766-4.252 11.48-1.688 3.715-3.847 7.16-6.142 10.536 0 .068.067.135.135.135a57.27 57.27 0 006.412-10.468c1.619-3.58 3.442-7.699 3.847-11.684zm1.013 3.376c-1.147 2.904-1.755 6.01-2.97 8.915-1.282 2.904-2.834 5.605-4.724 8.104 0 0 .067.135.067.068 3.645-4.525 7.56-10.941 7.627-17.087zm1.35 3.444c-.878 2.904-1.35 5.808-2.633 8.645-1.349 2.971-3.239 5.673-5.399 8.104-.068.067.067.203.135.135 4.319-4.187 8.099-10.603 8.032-16.749 0-.068-.135-.203-.135-.135zm1.013 4.458c-.608 1.756-.945 3.512-1.688 5.268-.742 1.689-1.755 3.174-2.834 4.66-.068.068.135.203.135.135 2.429-2.498 4.454-6.416 4.387-10.063z"/><path d="M209.045 49.918c-2.835-7.091-5.67-14.25-8.977-21.071 0-.068-.135-.135-.135 0 2.632 7.159 5.872 14.182 9.044 21.071-.067 0 .068.068.068 0zm-9.99-18.775c0-.067 0-.067 0 0 1.485 5.606 3.914 11.076 6.074 16.412 0 .067.135.135.135.067-1.89-5.538-3.712-11.278-6.209-16.479zm-1.011 2.973a785.443 785.443 0 0010.933 24.313c0 .067.135.135.068 0-3.51-8.172-7.154-16.276-11.001-24.313zm8.098 11.007c-.067-.067 0-.067 0 0 2.498 6.011 5.13 12.022 7.762 17.965 0 .068.068.068.068 0a1433.42 1433.42 0 00-7.83-17.965zm1.688 13.845c-3.24-7.632-6.682-15.33-10.461-22.76 0-.067-.068-.067-.068 0 3.105 7.7 6.749 15.264 10.394 22.76.068 0 .135.068.135 0zm-5.063-8.307c-2.024-3.917-4.049-7.834-6.344-11.684 0-.067-.067-.067-.067 0 1.889 3.985 4.049 7.835 6.276 11.617.068.135.203.135.135.067zm-7.221-8.442c-.068-.068-.068 0 0 0 4.049 5.403 7.221 11.278 9.854 17.492 0 .067.202.202.135.067-2.228-6.483-5.737-12.291-9.989-17.56zm8.031 16.006c-2.699-4.457-5.669-8.78-8.571-13.17-.068-.067-.068 0-.068.068 2.767 4.39 5.535 8.847 8.504 13.102.135.068.203.135.135 0zm.406 4.863c-2.768-5.875-6.345-11.346-10.124-16.614-.068-.067-.135 0-.068.068 3.712 5.335 6.884 10.94 10.057 16.546.067.068.202.135.135 0zm-5.535-5.268a36.031 36.031 0 00-5.805-8.779c-.067-.067-.067 0-.067.068 2.16 2.769 4.05 5.605 5.737 8.712 0 .067.135.135.135 0zm1.35 5.606c-1.957-3.647-4.589-7.699-7.357-10.806.878 1.891 2.228 3.647 3.375 5.403 1.215 1.824 2.362 3.647 3.712 5.336.068.067.338.202.27.067zm-3.645-2.229c-1.552-2.702-3.239-5.403-5.129-7.902 0-.068-.068-.068-.068 0 1.485 2.701 3.24 5.403 5.062 7.902.068.067.203.135.135 0zm.472 3.983c-1.687-3.511-3.915-6.82-6.547-9.657 2.295 3.107 4.455 6.281 6.412 9.59 0 .135.202.203.135.068zm-4.589 19.25a158.31 158.31 0 01-15.794 3.849v.067c5.4-.743 10.732-2.026 15.794-3.917zm4.995-2.904c-4.658 1.689-9.247 3.107-14.174 3.917v.068c4.859-.473 9.921-1.689 14.241-3.85.068 0-.067-.135-.067-.135zm4.724-4.256c-3.712 2.026-7.424 3.715-11.541 4.525-.068 0 0 .067.067.067 4.117-.81 8.167-2.16 11.609-4.457 0 0-.067-.135-.135-.135zm7.154-1.013c-2.7 1.216-5.264 2.567-7.897 3.985 0 0 0 .135.068.068 2.7-1.284 5.332-2.5 7.964-3.918l-.135-.135zM121.641.55c-.069 0 0 .07 0 .07.07 0 0-.07 0-.07z"/><path d="M121.91.145c-.337 0-.945.81-.472.81.27 0 .877-.81.472-.81z"/><path d="M121.708.55c-1.417 3.511-2.294 7.63-2.969 11.278 0 .067.067.202.135.135 1.147-3.58 2.362-7.564 2.834-11.414zm1.08-.27a125.616 125.616 0 01-4.32 12.9s.068.134.068.067c2.024-4.052 3.577-8.375 4.454-12.832-.067-.068-.202-.203-.202-.135z"/><path d="M122.923 1.293c-1.417 4.39-2.902 8.78-4.184 13.17l.067.067c1.485-4.39 2.835-8.78 4.185-13.17l-.068-.067z"/><path d="M123.395 3.116c-.742.337-1.485.878-2.16 1.283-.675.405-1.417.81-1.957 1.418.742-.27 1.417-.743 2.092-1.148.743-.473 1.485-.878 2.16-1.418.135 0-.067-.135-.135-.135zm-1.282 3.241c-1.417 1.148-2.7 2.432-3.982 3.715-.067.067.068.203.135.135 1.35-1.216 2.7-2.364 3.915-3.715.067-.067 0-.202-.068-.135zm-1.418 3.309c-1.619 1.486-2.969 3.175-4.387 4.795v.068c1.485-1.553 3.105-3.04 4.455-4.795.067 0 0-.068-.068-.068zm-1.215 3.784c-1.35 1.35-2.565 2.7-3.712 4.254 0 0 .068.135.068.067 1.349-1.283 2.564-2.7 3.712-4.187.067-.067 0-.202-.068-.135zm-2.429 4.794c-.743 5.268-1.553 10.535-2.295 15.803.81-5.268 1.552-10.535 2.295-15.803z"/><path d="M117.658 17.163c-2.564 6.213-4.184 13.035-4.454 19.788 0 .068.067.135.135.068.675-6.821 2.024-13.305 4.319-19.856zm-1.147 6.347c-.877 5.201-1.89 10.334-2.632 15.534 0 0 .067.135.067.068 1.013-5.2 1.823-10.4 2.632-15.534 0-.067-.067-.135-.067-.067z"/><path d="M118.941 14.8c-3.105 10.198-4.657 20.8-5.67 31.404 1.282-10.536 3.442-20.936 5.67-31.404zm-4.118 15.803c-1.485 7.361-2.565 14.858-2.497 22.422 0 .067.067.135.067.067.473-7.564 1.08-14.993 2.43-22.422.068 0 0-.067 0-.067z"/><path d="M113.946 35.87c-1.35 8.104-2.092 16.344-1.417 24.516 0 0 .067.135.067.067.068-8.24.27-16.411 1.418-24.516.067 0 0-.067-.068-.067zm-2.227 21.95c-.27 7.09.944 14.25 4.117 20.666 0 .067.135.067.067 0-2.632-6.619-4.252-13.44-4.184-20.666z"/><path d="M117.388 78.486c-3.307-6.416-5.264-13.035-5.264-20.328 0-.068-.135-.203-.135-.068-.203 7.159 1.417 14.385 5.264 20.396.068.067.203.067.135 0z"/><path d="M118.873 84.362c-3.982-5.336-6.547-11.481-7.154-18.1l-.068-.068c.473 6.754 2.768 13.035 7.222 18.168 0 .135 0 .135 0 0z"/><path d="M126.028 86.928c-5.737-3.917-10.057-9.185-12.689-15.668 0-.068-.135-.136-.067 0 2.429 6.483 6.951 12.088 12.823 15.803.068.067 0-.135-.067-.135z"/><path d="M129.537 89.63c-7.02-3.31-12.622-8.713-16.131-15.67 0-.067-.135-.067-.068 0a31.243 31.243 0 0016.266 15.804c.068 0 0-.135-.067-.135z"/><path d="M132.439 91.25c-7.694-3.174-14.241-8.239-19.1-15.06-.068-.068-.203-.068-.135 0 4.657 6.956 11.406 12.291 19.235 15.263.135 0 .068-.203 0-.203z"/><path d="M133.722 93.143c-7.019-2.702-13.094-6.822-17.886-12.63-.067-.067-.135 0-.067.068 4.724 5.808 10.866 10.333 18.021 12.697.067.067 0-.135-.068-.135z"/><path d="M133.992 93.142c-6.21-2.026-11.947-5.066-16.806-9.59-.068-.068 0 0 0 .067 4.724 4.525 10.461 8.037 16.806 9.658.135.067.067-.068 0-.135z"/><path d="M124.273 90.778c-2.835-3.242-4.185-6.55-4.86-10.738 0-.068-.202-.203-.202-.135-.27 4.052 1.957 8.374 5.062 10.94.067.068.067 0 0-.067z"/><path d="M126.635 92.331c-1.823-1.823-2.97-4.052-4.117-6.28 0-.068-.135-.136-.135-.068.607 2.566 2.362 4.66 4.252 6.416.067.135.067 0 0-.068zm3.24 1.419a97.595 97.595 0 00-4.252-6.079c-.068-.067-.135-.067-.068 0 1.35 2.027 2.7 4.12 4.185 6.079 0 .067.202.135.135 0zm-13.5-15.331c0-.068-.135-.135-.135-.068-.135 2.431.54 5.065 1.688 7.159-.54-2.364-1.148-4.66-1.553-7.091zm-2.361-1.823s-.135-.135-.135-.068c.067 1.824.607 3.58 1.012 5.336 0 .067.135.135.135.067-.27-1.823-.472-3.647-1.012-5.335zm-.675-5.404c-.473 1.824-.54 3.715-.743 5.538 0 .068.135.203.203.135.27-1.823.675-3.714.742-5.538-.067-.067-.135-.202-.202-.135zm76.267-13.98c-4.589 9.185-11.271 16.48-18.763 23.368 0 0 0 .067.068.067 8.099-5.943 14.173-14.587 18.763-23.367l-.068-.068zM159.774 87.67c-7.491 4.593-16.333 6.146-24.972 4.796v.067c8.639 1.756 17.548-.067 24.972-4.862zm9.044-5.672c-2.159 1.35-4.184 2.903-6.277 4.322 2.093-1.418 4.253-2.702 6.277-4.322zM140.336 94.56c-3.443-.472-6.885-.878-10.327-1.62-.067 0 0 .134.068.134 3.374.878 6.816 1.486 10.326 1.689.135 0 0-.203-.067-.203zm5.738-.675c-2.228 1.35-4.725 1.959-7.357 1.35-.068 0 0 .068.067.136 2.565.675 5.332.405 7.425-1.283.067-.068-.068-.203-.135-.203zm6.883-2.094c-2.362 1.959-5.062 3.31-8.167 3.647-.067 0 .068.203.135.203 3.105-.27 5.94-1.486 8.167-3.715 0-.067-.067-.202-.135-.135zm4.253-1.351c-1.89 1.62-3.847 3.106-6.074 4.187-.068.067.135.202.202.202 2.295-1.013 4.387-2.363 6.007-4.254l-.135-.135z"/><path d="M168.278 83.89c-4.387 3.579-9.381 6.347-14.713 8.373 5.602-1.755 10.394-4.524 14.713-8.374z"/><path d="M170.641 81.526c-3.24 2.837-6.749 5.403-10.529 7.43-.068 0 .067.134.135.134 3.847-1.958 7.424-4.39 10.461-7.496 0 0 0-.068-.067-.068zm5.534-4.998c-3.104 4.052-6.816 7.7-10.799 10.873-.067.068.068.203.135.136 4.185-3.175 7.627-6.822 10.664-11.009zm6.074-6.348c-1.687 2.026-3.239 4.187-4.792 6.28-.067.068.135.203.135.136 1.62-2.094 3.24-4.188 4.725-6.349.067 0 0-.067-.068-.067zm-37.728 23.298c-2.092-.135-4.252-.067-6.344-.067-.135 0 .067.202.135.202 2.092 0 4.184.068 6.277 0 .067 0 0-.135-.068-.135zm12.958-80.299c-.069 0 0 .069 0 .069.069.07.069-.07 0-.07z"/><path d="M157.749 12.841c-.337 0-.945.81-.472.81.27 0 .945-.81.472-.81z"/><path d="M157.479 13.179c-.54.405-1.079.945-1.552 1.486-.54.54-1.08 1.08-1.552 1.688-.068.068.067.203.135.135.607-.473 1.147-1.013 1.687-1.553s1.08-1.013 1.485-1.621c0 0-.135-.135-.203-.135zm.608.877c-.54.135-.945.743-1.35 1.216-.473.54-1.013 1.013-1.35 1.62l.067.136c.54-.405 1.08-.946 1.553-1.486.337-.405 1.08-.945 1.08-1.486zm-.27 1.824a2.86 2.86 0 00-.338.472 2.008 2.008 0 01-.27.54c-.202.338-.54.541-.81.811-.067 0 .068.135.068.135.405-.135.742-.337.945-.675.135-.135.202-.338.27-.54.202-.338.067-.405.135-.743zm.203 1.553c-.608.608-1.148 1.35-1.62 2.094 0 .067.067.135.135.135.675-.608 1.147-1.351 1.62-2.094 0-.067-.068-.203-.135-.135zm.27 2.094c-.473.54-.743 1.148-1.35 1.554-.068.067.067.202.135.135.742-.27 1.35-.81 1.35-1.621-.068 0-.135-.135-.135-.068zM140.876 8.383c0-.068-.135-.135-.202-.135-1.688.81-2.228-1.283-2.362-2.567 0-.135-.27-.202-.338-.202-.337.067-.675.067-1.012.202v.068c.27.067.607 0 .877 0 0 1.013 0 2.161.877 2.769.675.473 1.485.473 2.093.067.067 0 .067-.067.067-.135v-.067z"/></g></svg>