<svg width="24" height="24" fill="none" xmlns="http://www.w3.org/2000/svg"><g clip-path="url(#clip0_411_2489)"><path d="M23.59 21.674l-6.35-6.349a9.424 9.424 0 001.916-5.747C19.156 4.324 14.832 0 9.578 0S0 4.324 0 9.578s4.324 9.578 9.578 9.578c2.135 0 4.105-.711 5.747-1.915l6.349 6.349c.547.547 1.423.547 1.916 0 .547-.493.547-1.369 0-1.916zM2.736 9.633A6.844 6.844 0 019.578 2.79a6.844 6.844 0 016.842 6.842 6.844 6.844 0 01-6.842 6.841 6.844 6.844 0 01-6.841-6.841z" fill="#36B233"/></g><defs><clipPath id="clip0_411_2489"><path fill="#fff" d="M0 0h24v24H0z"/></clipPath></defs></svg>